<svg xmlns="http://www.w3.org/2000/svg" width="355.576" height="608.648" viewBox="0 0 355.576 608.648">
  <g id="Group_148" data-name="Group 148" transform="translate(-22.852 -6.779)">
    <path id="Path_2" data-name="Path 2" d="M65.334,53.98l-2.726-.673C63.971,50.1,70.825,36.552,87.628,40.7c15.945,3.928,15.937,17.652,15.528,21.957a4.328,4.328,0,0,0-3.407,1.515c1.162.024,2.108.032,2.758.04a2.79,2.79,0,0,1,1.178.024l.04.016.048.016a2.805,2.805,0,0,1,1.964,3.359,2.746,2.746,0,0,1-.505,1.042l.16.762a1.016,1.016,0,0,1-.585,1.146c-.024.016-.569.257-1.443.657a4.286,4.286,0,0,0,2.325-7.648l10.518-19.5a2.8,2.8,0,1,0-1.716-1.267,2.558,2.558,0,0,0,.409.513L104.671,62.293c.313-5.122-.4-19.047-16.682-23.063-18.109-4.465-25.58,10.734-26.855,13.708l-2.75-.673-1.716,6.95,6.95,1.716Zm-5.844.1,4.024.994L62.52,59.1,58.5,58.108ZM90.714,94.831a2.8,2.8,0,1,1-2.894-4.794,2.769,2.769,0,0,1,2.06-.337l8.73-16.177c.834-.417,1.619-.8,2.333-1.146L91.211,90.422a2.853,2.853,0,0,1,.457.561A2.8,2.8,0,0,1,90.714,94.831ZM104.4,69.644S88.229,76.77,84.253,81.668c-3.631.2-6.173.361-6.173.361s-3.327-2.95-7.431-2.461c-.369.048-.7.1-1.042.152l.08.369-1.21.257.208.994L59.113,84.61l-1.555-7.239-1.547-7.247,10.077-.938.208.986,1.21-.265.08.385c.337-.1.657-.184,1.01-.3,3.944-1.227,5.772-5.283,5.772-5.283s2.381-.89,5.78-2.2c5.636,2.838,23.3,2.71,23.3,2.71L103.829,67,86.185,70.926c-1.307-3.5-7.287-2.2-6.95,1.8,1.331,3.776,7.319,2.517,7.07-1.211l17.708-3.647Z" transform="translate(232.658 221.965)" fill="#035fe1"/>
    <path id="Path_3" data-name="Path 3" d="M86.472,56.728l7.616,12.209L81.871,76.552,74.263,64.335ZM60.628,42.467l12.209-7.616L65.229,22.642,53.012,30.258ZM79.113,55.646l-2.429-.561L71.53,58.3,64.852,47.581,75.57,40.9l2.349,3.776a3.648,3.648,0,0,1,.505.072l1.892.441-4.185-6.718L62.423,47.012,70.969,60.72Zm32.2-4.369a1.227,1.227,0,0,1,1.475-.914l.569.128a1.231,1.231,0,0,1,.914,1.475l-.329,1.419L127.412,56.5a4.848,4.848,0,0,1-2.188,9.443L111.756,62.82l-.329,1.419a1.216,1.216,0,0,1-1.467.914l-.577-.128a1.222,1.222,0,0,1-.914-1.467l.248-1.066-.938-.216L108,61.3,77.165,54.146l-.874-.2c-1.635-.385-2.028-2.4-4.457-4.136l.537-2.333c2.9-.5,4.145-2.124,5.828-1.74l.89.208L109.912,53.1l.224-.978.938.216Zm3.607,10.245-.232,1s5.684,1.315,10.133,2.349a4.923,4.923,0,0,0,3.311-.529c-1.4-.056-1.235-.04-5.275-.978Zm-4.914-2.461s-.962,4.161-1.042,4.5.152.713.866.842a1.062,1.062,0,0,0,.986-.192c-.609-.032-1.186-.353-1.154-.665S110.009,59.06,110.009,59.06ZM78.336,52.6c-3.487-.81-4.369-2.485-5.852-3.166,0,0,2.533,3.527,5.291,4.169,1.707.393,9.4,2.18,15.84,3.672s13.532,3.086,13.532,3.086l.224-.97S81.823,53.409,78.336,52.6Z" transform="translate(211.616 111.3)" fill="#035fe1"/>
    <path id="Path_4" data-name="Path 4" d="M52.553,78.4a2.85,2.85,0,1,0-3.736-1.515A2.847,2.847,0,0,0,52.553,78.4Zm-2.036-4.818A2.38,2.38,0,1,1,49.25,76.7,2.38,2.38,0,0,1,50.517,73.585ZM65.2,92.968,54.221,97.618l-2.044-4.826,10.983-4.65ZM47.912,67.428a9.029,9.029,0,0,0-4.617,4.385l-2.605-6.149,10.974-4.649,2.605,6.149A9.059,9.059,0,0,0,47.912,67.428Zm7.062,16.69a9,9,0,0,0,4.617-4.385L62.2,85.882l-10.974,4.65-2.605-6.149A8.972,8.972,0,0,0,54.974,84.118ZM50.709,58.754,39.727,63.4l-2.036-4.818,10.974-4.65Zm50.175-30.23L89.292,33.43l-.922,2.277,13.187-5.587a.8.8,0,0,1,1.05.425L119.53,70.506a.789.789,0,0,1-.425,1.042L68.073,93.169,50.525,51.732l27.9-11.816.922-2.269L36.665,55.724a2.53,2.53,0,0,0-1.347,3.319L52.241,99a2.535,2.535,0,0,0,3.319,1.339l64.227-27.2a2.533,2.533,0,0,0,1.339-3.319L104.2,29.863A2.533,2.533,0,0,0,100.884,28.524Zm-34.551,64.9L53.756,98.748l-2.718-6.413,12.578-5.323Zm-3-7.078L50.758,91.67l-3.832-9.059A8.189,8.189,0,0,0,59.5,77.288Zm-18-7.984a6.629,6.629,0,1,1,8.69,3.519A6.632,6.632,0,0,1,45.338,78.362ZM55.96,68.943a8.189,8.189,0,0,0-12.57,5.323l-3.84-9.059,12.578-5.323Zm-4.112-9.724L39.27,64.542l-2.718-6.413L49.13,52.8Zm17.7,8.578a1.543,1.543,0,0,0,.008,1.194,1.584,1.584,0,0,0,.882.85,1.558,1.558,0,0,0,2.036-.858l.2-.481,1.852-1.138a1,1,0,0,0,.321-.313L77,63.748l.088-.168L87.865,36.95l13-5.507a.757.757,0,0,1,1,.409l16.209,38.27a.76.76,0,0,1-.4,1L68.794,91.83l-16.8-39.689L77.917,41.166,70,60.71a.7.7,0,0,0-.056.184l-.762,3.864a.949.949,0,0,0,.016.449l.537,2.108Zm.641-2.846.625,2.437-.321.794a.54.54,0,0,0,.3.705l.032.016a.55.55,0,0,0,.713-.3l.321-.786L74,66.5l2.14-3.3,17.4-42.944-.465-.192.77-1.892a1.693,1.693,0,0,0-.93-2.2l-1.138-.465a1.691,1.691,0,0,0-2.2.93l-.762,1.9-.465-.192L70.943,61.1ZM77.6,44.677l5.187,2.1-.257.633-5.187-2.1Zm-.681,5.884a1.2,1.2,0,0,1,1.571-.665l.024.008a1.2,1.2,0,0,1,.673,1.571l-2.5,6.173-2.269-.914Zm-3.944,9.732,1.154-2.846,2.261.922L75.24,61.215a1.22,1.22,0,0,1-1.579.665l-.024-.008A1.22,1.22,0,0,1,72.971,60.293Z" transform="translate(86.057 60.35)" fill="#035fe1"/>
    <path id="Path_5" data-name="Path 5" d="M46,39.424,45.993,41.2l6.517.032-.008.93-6.517-.032-.032,8.113,6.517.032-.008.93-6.517-.024-.032,8.113,6.517.024-.008.938-6.509-.032-.04,8.113,6.517.032v.93l-6.517-.032-.04,8.113,6.517.032v.93l-6.517-.024-.04,8.113,6.517.024v.938l-6.517-.032-.04,8.113,6.517.032v.93L45.752,96.4l-.04,8.113,6.517.024v.938l-6.517-.032-.04,8.113,6.517.032v.93l-6.517-.032-.04,8.113,6.517.032v.93l-6.517-.024-.04,8.113,6.517.024v.938l-6.517-.032-.008,1.764,15.969.072L61.97,39.5Zm9.94,89.511c-.008,3.062-4.762,3.038-4.746-.024S55.957,125.873,55.941,128.935Z" transform="translate(159.498 229.05)" fill="#035fe1"/>
    <path id="Path_6" data-name="Path 6" d="M98.136,103.378a.83.83,0,0,0,.393-1.395L24.762,28.128a.832.832,0,0,0-1.395.786l4.69,19.536L27.92,47.9l5.155-1.243.2.85-5.155,1.235,1.932,8.04-.168-.7,5.155-1.235.2.842-5.155,1.235,9.772,40.771-.16-.681,5.147-1.235.2.842L39.9,97.855l1.932,8.048-.168-.705,5.147-1.235.2.842-5.147,1.235,2.261,9.435a.831.831,0,0,0,1,.617ZM24,31.519l3.327-.794.713.721-3.84.914ZM25.956,39.7l5.155-1.235.208.842-5.155,1.243Zm5.892,24.562,5.147-1.235.208.842-5.155,1.235Zm1.964,8.185,5.147-1.235.2.842-5.147,1.235Zm1.956,8.185L40.923,79.4l.2.85-5.147,1.235Zm1.964,8.193,5.147-1.235.208.842L37.933,89.67ZM52,101.286,43.44,65.565a1.723,1.723,0,0,1,2.894-1.619L76.772,94.424a1.721,1.721,0,0,1-.818,2.894L54.078,102.56A1.72,1.72,0,0,1,52,101.286Zm29.468-.04c-.842-3.511,4.6-4.818,5.443-1.307S82.312,104.749,81.47,101.246ZM43.625,113.382l5.139-1.235.208.85-5.147,1.226Z" transform="translate(3.446 148.061)" fill="#035fe1"/>
    <path id="Path_7" data-name="Path 7" d="M89.438,86.692l3.279-5.411.184-.16a3,3,0,0,0,.3-4.225L49.4,26.448l6,6.493,1.836,1.114-.321.529,1.523,1.651.649-1.066,12.987,7.872-2.91,4.8,1.523,1.643,3.231-5.331L86.9,52.029,81.405,61.1l1.523,1.651,5.812-9.6,12.995,7.872L93.654,74.354l1.964,2.132,8.217-13.556a2.724,2.724,0,0,0,.04-3.423,6.5,6.5,0,0,0-1.05-.77c-1.106-.657-53.429-32.29-53.429-32.29h0l6.269,3.8.008-.008-5.748-3.68,5.884,3.223.016-.04L70.35,34.176l-.93,3.046,1.932,1.058,1.058-3.471,14.526,4.433-1.98,6.485,1.932,1.058L89,39.868,103.522,44.3l-3.03,9.924,2.5,1.371.8-2.629,2.237-7.319a3,3,0,0,0-2-3.744L56.394,27.362l.321.024L47.64,24.428l11.768,3.1,8.241.457-.1,1.691,2.132.561.12-2.132,15.159.842-.289,5.243,2.124.553.321-5.676,15.159.842-.489,8.786,2.758.729h0l.489-8.81a2.994,2.994,0,0,0-2.83-3.15L46.59,24.372l-1.267-.385,1.828,1.106h0l-1.868-1.138a2.95,2.95,0,0,0-1.411-.409L39.7,22.264A3,3,0,0,0,36.145,23.8l-1.106-.064a3,3,0,0,0-3.158,2.822l-.609,11.055L23.879,44.02a3,3,0,0,0-.3,4.225l44.106,50.8a3,3,0,0,0,4.225.3l13.4-11.64h.008A2.991,2.991,0,0,0,89.438,86.692ZM41.163,24.965,37.1,31.683l2.14-7,1.772.537ZM32.1,36.886l3.022-9.916.04-.786.192.016.593-1.94L32.1,36.886Zm4.016,6.068a3.955,3.955,0,1,1,5.579.393A3.95,3.95,0,0,1,36.12,42.954Z" transform="translate(0 107.734)" fill="#035fe1"/>
    <path id="Path_8" data-name="Path 8" d="M101.5,44.241l-2.533-5.619,3.078-1.387,4.505,4.73ZM93.152,53.5,86.491,38.742c10.7.353,10.982-1.138,11.528.064l2.71,6.012C101.273,46.021,99.966,45.243,93.152,53.5Zm4.722-8.209c-.9,1.435-4.064,4.682-4.609,6.125a43.6,43.6,0,0,1,4.16-4.313c1.788-1.491,2.758-1.86,2.277-2.918L98.6,41.74A6.844,6.844,0,0,1,97.874,45.292ZM29.767,64l6.918,15.335A3.123,3.123,0,0,0,39.964,80.4L31.138,60.843A3.122,3.122,0,0,0,29.767,64Zm-1.082.489a2.445,2.445,0,0,0-1.218,3.231L32.372,78.6A2.441,2.441,0,0,0,35.6,79.818l.184-.08L28.869,64.411Zm2.9-3.9L77.569,39.832l8.858,19.64L40.453,80.227Zm52.066-5.74L40.228,76.483l.762,1.683L85.176,58.222Zm2.734,2.83,1.579-.713-1.523-3.375-1.579.713Zm2.718.585L80.238,38.63l1.283-.577a3.114,3.114,0,0,1,3.712.89l.393-.152,6.918,15.327-.377.192a3.112,3.112,0,0,1-1.78,3.375Zm.449-2.012a2.327,2.327,0,0,0,1.162-3.078l-5.94-13.147s3.423,8.554,4.145,11.52c.8,3.271,0,4.986,0,4.986Z" transform="translate(30.86 213.691)" fill="#035fe1"/>
    <path id="Path_9" data-name="Path 9" d="M105.574,47.711l.721.978L61.284,81.909l-.008-.008-4.369,1.9a4.067,4.067,0,0,0-.762-1.691,4.177,4.177,0,0,0-1.459-1.259L57.8,77.2l-.008-.008,45.02-33.22.721.986L58.863,77.925l-3.207,3.231L58.582,78.7l.529-.393,44.7-32.987,1.427,1.932-44.715,33-3.671,2.533,3.583-1.756.457-.345ZM55.857,83.224a1.707,1.707,0,0,0-.3-.738,1.915,1.915,0,0,0-.689-.617,1.284,1.284,0,0,1-.048-.281,2.047,2.047,0,0,1-.617-.289l-3.351,3.4a1.846,1.846,0,0,1,.834.665,1.88,1.88,0,0,1,.385.962L56.2,84.17a1.784,1.784,0,0,1-.08-.81A2.073,2.073,0,0,1,55.857,83.224ZM50.325,85.26l-1.467,1.707c-.248.369-.008.721.441.6l2.084-.906a2.015,2.015,0,0,0-.353-.818A1.917,1.917,0,0,0,50.325,85.26Zm66.159-44.09a1.177,1.177,0,0,0,.248-1.643l-2.092-2.83A1.177,1.177,0,0,0,113,36.448l-2.253,1.667,3.487,4.714Zm-8.626,1.058,2.653,3.6.321-.232L108.18,42Zm-.569.425,2.653,3.6.321-.24-2.653-3.6Zm-.184-.922-.561-.77-.321.24.561.77Zm.569-.417-.569-.77-.321.232.569.77Zm2.413-2.966-2.734,2.012.569.77,2.557-1.884.505.681-2.557,1.884,2.653,3.6,2.734-2.012Zm-5.6,6.373-.5-.681,2.557-1.892-.569-.77-2.734,2.02,3.728,5.05,2.734-2.02-2.661-3.6Z" transform="translate(181.772 206.565)" fill="#035fe1"/>
    <path id="Path_10" data-name="Path 10" d="M95.882,72.764l3.543,2.084,4.593-16.586a2.74,2.74,0,0,0,1.892-4.9l5.05-3.038L103.5,77.245l3.463,2.036-.457.778-3.255-1.924L98.76,94.328A3.477,3.477,0,0,0,96.8,92.885a3.521,3.521,0,0,0-2.437.224l4.818-17.372-3.752-2.2ZM113.414,37.22l2.341,1.371.641-1.1-2.333-1.371ZM58.83,96.541l7.688-6.084-1.531-1.4ZM70.1,85.078a3.487,3.487,0,0,1-.994-2.229l-2.413,2.373-1.6,2.549,2.469,2.517,2.333-1.812L72.306,86.1A3.513,3.513,0,0,1,70.1,85.078Zm4.746-.24a3.157,3.157,0,1,1,.04-4.465A3.162,3.162,0,0,1,74.847,84.837Zm-.545-3.9a2.344,2.344,0,1,0-.032,3.311A2.342,2.342,0,0,0,74.3,80.941Zm17.957,29.484-1.122-.24-.729,3.623a.322.322,0,0,0,.617.168Zm1.8-4.529-2.164-.577-.85,3.976,1.716.433Zm7.768-51.778a2.757,2.757,0,0,1,3.447-1.13L105.5,47.1l-.016-.016L85.557,66.68l-3.575-2.1-.457.77,3.375,1.98L72.955,79.065A3.521,3.521,0,0,1,75.167,80.1a3.48,3.48,0,0,1,.986,2.221L88.972,69.726l3.655,2.156.457-.77-3.455-2.036L101.9,57.012A2.763,2.763,0,0,1,101.83,54.118Zm-.5-4.048,1.347-1.331a7.407,7.407,0,1,1,8.2,4.826l-.505,1.82a9.149,9.149,0,1,0-9.042-5.315Zm-4.9,52.668.922-3.327a3.441,3.441,0,0,1-4.4-1.218l-.922,3.327-.449,2.918,3.391.938Zm-3.615-7.319a3.153,3.153,0,1,1,2.2,3.888A3.149,3.149,0,0,1,92.819,95.419Zm2.413,3.1a2.342,2.342,0,1,0-1.627-2.886A2.338,2.338,0,0,0,95.232,98.521Zm10.085-44.876a2.178,2.178,0,1,1-2.99.77A2.179,2.179,0,0,1,105.317,53.645Zm-2.261,1.194a1.35,1.35,0,0,0,.473,1.836,1.338,1.338,0,1,0-.473-1.836Zm14.061-17.588,4.569-7.752-2.413-1.427-.786-.457-4.561,7.76.778.457ZM91.529,75.314l1.523.9,4.024-6.83-1.523-.9Z" transform="translate(252.437 146.2)" fill="#035fe1"/>
    <path id="Path_11" data-name="Path 11" d="M53,67.371,61.328,70.6,57.7,74.93l-.072.032L54.2,69.022Zm3.134,8.265-4.329-7.5-2.782-3.848.064-.072,4.088,2.132L61.32,69.5v-.144c.048-1.138.93-2.156,2.485-2.87L68.4,64.421,45.568,56.677l-2.493,2.966,9.443,17.62Zm6.686-3.944a3.489,3.489,0,0,1-.665-.489l-2.317,2.766L63.725,72.2ZM74.5,61.679l.112-.04a8.208,8.208,0,0,1,.112-3.375,13.7,13.7,0,0,1,.673-2,12.521,12.521,0,0,1-1.459-.281l-.048.056a1.075,1.075,0,0,1-.361.273,1,1,0,0,1-.537.088,13.925,13.925,0,0,1-1.764-.329c-.6-.152-1.243-.353-1.884-.577a18.7,18.7,0,0,1-1.9-.8,14.307,14.307,0,0,1-1.732-.978,1.012,1.012,0,0,1-.457-.954c.024-.289.088-.585.136-.89l-3.519,1.619a4.171,4.171,0,0,0-2.06,5.531l.77,1.675,9.179,3.11ZM93.065,46.264c.577.481,1.082.9,1.515,1.235.232.184.481.369.737.553l.1-.08-1.082-2.365-.914-1.98a4.167,4.167,0,0,0-5.531-2.06l-.064.032c.481.425.946.842,1.379,1.251C90.42,43.979,91.718,45.133,93.065,46.264ZM96.945,58a7.4,7.4,0,0,1-1.347-.545l-.265.313a.974.974,0,0,1-.353.273,1.04,1.04,0,0,1-.713.048,8.337,8.337,0,0,1-1.034-.385,7.324,7.324,0,0,1,.216,1.98,7.984,7.984,0,0,1-.521,2.533,8.5,8.5,0,0,1-1.523,2.549,9.768,9.768,0,0,1-1.395,1.371l16.866,9.708a3.466,3.466,0,0,1,1.05.906,4.294,4.294,0,0,0-.353-2.237L98.837,55.451c-.265.433-.513.842-.746,1.186ZM46.522,68.229a4.53,4.53,0,0,0-.409,4.449l2.846,6.2,2.629-1.186ZM80.608,47.867a22.586,22.586,0,0,0-2.253-1.932l-4.337,1.988a5.121,5.121,0,0,0-.265.657l2.854,5.235c.1-.176.192-.353.3-.537C77.858,51.7,79.1,49.887,80.608,47.867Zm18.919.224a11.029,11.029,0,0,1-.609,1.708q-.457,1.022-.986,2.116c-.361.721-.737,1.419-1.138,2.084s-.77,1.251-1.09,1.748L94.556,57.11A7.686,7.686,0,0,1,92.3,56.044c-.657-.457-1.443-1.05-2.341-1.764l-.168.2a6.8,6.8,0,0,1,.97,1.98,7.229,7.229,0,0,1,.3,2.333,8.213,8.213,0,0,1-.521,2.533,8.666,8.666,0,0,1-1.523,2.549,11.231,11.231,0,0,1-1.05,1.082l-5.756-3.311a9.18,9.18,0,0,0-6.622-.361,7.092,7.092,0,0,1,.128-2.79,16.541,16.541,0,0,1,2.068-4.69,67.988,67.988,0,0,1,4.169-6.036,15.978,15.978,0,0,0-5.291-3.96,3.242,3.242,0,0,0-3.792,1.259,8.25,8.25,0,0,0-1.515,2.621l3.231,5.924L73.1,55.386h0a12.592,12.592,0,0,1-1.619-.3c-.585-.152-1.186-.337-1.8-.553a16.949,16.949,0,0,1-1.8-.754,14.308,14.308,0,0,1-1.627-.914,15.942,15.942,0,0,1,1.659-5.315,27.1,27.1,0,0,1,3.672-5.6,15.275,15.275,0,0,1,3.631-3.311,7.323,7.323,0,0,1,3.263-1.122,6.2,6.2,0,0,1,2.99.553,12.355,12.355,0,0,1,2.758,1.772q2.4,2.02,4.265,3.752t3.9,3.447c.593.5,1.106.914,1.547,1.259s.922.7,1.443,1.042l2.726-2.429Zm-11.039,5.74c-.224-.433-.433-.81-.633-1.114L83.838,49.35a29.326,29.326,0,0,0-2.349,3.295,6.353,6.353,0,0,0-.922,2.437,3.176,3.176,0,0,0,.377,1.924A6.519,6.519,0,0,0,82.427,58.7,4.62,4.62,0,0,0,85.4,59.956a3.261,3.261,0,0,0,2.525-1.3,3.89,3.89,0,0,0,.89-1.716,5.344,5.344,0,0,0,.1-1.659A4.123,4.123,0,0,0,88.488,53.831Zm-3.4-2.1c-.481.665-.89,1.267-1.2,1.8a6.1,6.1,0,0,0-.922,2.437,3.173,3.173,0,0,0,.369,1.924c.08.128.168.265.265.4a3.169,3.169,0,0,0,1.788.641,2,2,0,0,0,.818-.176A2.813,2.813,0,0,0,87.149,58a3.014,3.014,0,0,0,.673-1.267,4.539,4.539,0,0,0,.08-1.339,3.241,3.241,0,0,0-.321-1.1c-.176-.345-.345-.649-.505-.9ZM86.6,65.351l-2.285-1.315L81.7,62.529c-1.6-.922-4.633-.89-6.782.08L64.27,67.395c-2.148.962-2.573,2.493-.954,3.407l2.661,1.507L37.407,85.2c-2.317,1.05-2.734,2.7-.93,3.7l19.672,10.8a8.911,8.911,0,0,0,7.078-.088l42.206-19.336c2.18-.994,2.6-2.581.938-3.535Z" transform="translate(87.735 215.588)" fill="#035fe1"/>
    <path id="Path_12" data-name="Path 12" d="M101.7,62.746,89.231,68.317l-2.4,13.435a2.342,2.342,0,0,1-4.048,1.162L73.639,72.774,60.115,74.65a2.338,2.338,0,0,1-2.349-3.487l6.814-11.832L58.616,47.05a2.346,2.346,0,0,1,2.6-3.319l13.355,2.822,9.836-9.467a2.348,2.348,0,0,1,3.96,1.443l1.443,13.58,12.041,6.429A2.341,2.341,0,0,1,101.7,62.746Zm7.287-21.62L90.946,34.544l-.529,1.435,18.045,6.581ZM53.614,51.05,47.466,67.932l1.459.529,6.149-16.883Zm56.211-5.4-6.165,16.9,1.459.537,6.165-16.9ZM85,32.38l-18.1-6.6-.521,1.435,18.1,6.6ZM101.5,68.5,95.347,85.376l1.459.537,6.149-16.883ZM73.735,81.753,91.78,88.334,92.3,86.9,74.264,80.318ZM49.694,72.991l18.1,6.6.521-1.435-18.1-6.6Zm7.543-27.352L63.4,28.74,61.943,28.2,55.779,45.1Zm33.2-12.69-4.024-1.475L84.95,35.506l4.024,1.467Zm10.165,34.142,4.032,1.467,1.467-4.024-4.032-1.475Zm9.8-26.871-1.467,4.024,4.024,1.475,1.467-4.032Zm-44-16.041-4.032-1.467L60.9,26.744l4.032,1.467ZM92.293,89.913l4.024,1.467,1.467-4.024L93.76,85.889ZM68.3,81.168l4.032,1.475L73.8,78.61l-4.032-1.467ZM44.259,72.406l4.024,1.467,1.475-4.024-4.032-1.467ZM52.58,49.583,56.6,51.05l1.467-4.024-4.024-1.467Z" transform="translate(150.201 111.792)" fill="#035fe1"/>
    <path id="Path_13" data-name="Path 13" d="M85.977,39.578a25.709,25.709,0,1,0-1.868,36.306A25.708,25.708,0,0,0,85.977,39.578ZM80.333,71.7a20.07,20.07,0,1,1-.545-30.254l1.659-1.5,3.6,4L83.4,45.43A20.042,20.042,0,0,1,80.333,71.7Zm-.617-22.943L82.77,46a19.245,19.245,0,1,1-3.623-3.976L76.093,44.78a15.142,15.142,0,1,0,3.623,3.976ZM57.358,46.231A14.235,14.235,0,1,0,78.61,48.749L83.8,44.075l-2.509-2.79L76.1,45.967A14.219,14.219,0,0,0,57.358,46.231ZM74.987,65.775A12.09,12.09,0,1,1,75.868,48.7,12.086,12.086,0,0,1,74.987,65.775ZM67.964,45.863a20.405,20.405,0,0,0-.5,21.925,11.013,11.013,0,1,1,.5-21.925Zm36.6-7.006c-2.485-.1-4.225,3.487-4.722,6.686-.962,6.213,2.1,7.375,3.3,7.984a129.656,129.656,0,0,1-1.211,16.6c-.914,7.567-5.09,13.235-.922,18.422.425.529.337,1.94,1.539,2.068l.008.008h.1l.016-.008c1.2-.032,1.218-1.443,1.683-1.94,4.545-4.866.81-10.822.473-18.446a129.392,129.392,0,0,1,.04-16.642c1.251-.513,4.169-.289,3.9-7.712C108.655,42.648,107,38.952,104.567,38.856Zm-.858,15.512c-.016.89-.377,12.522-.705,16.818s-1.395,9.123-1.435,13a25.654,25.654,0,0,0,.77,5.94c-.168.112-.465-.216-.649-.705a16.848,16.848,0,0,0-1.3-2.325c-.729-1.186-.9-3.295-.577-5.652S101.9,73.19,102.579,67.6s.882-13.941.882-13.941C103.565,53.751,103.725,53.478,103.709,54.368Zm4.529-4.962a3.772,3.772,0,0,1-3.215,3.607c2.349-1.8,3.271-6.4.914-13.083a4.853,4.853,0,0,1,1.587,2.605A16.9,16.9,0,0,1,108.239,49.406Z" transform="translate(128.629 170.585)" fill="#035fe1"/>
    <path id="Path_14" data-name="Path 14" d="M104.448,47.4l8.481,5.916-.657.954L104.4,48.777a7.537,7.537,0,0,0-10.493,1.876l-3.784,5.419a7.13,7.13,0,0,0-.609,1.066,7.193,7.193,0,0,1,1.154-2.694l3.656-5.235A7.269,7.269,0,0,1,104.448,47.4Zm-.505,1.852,7.952,5.555L99.919,71.977l-7.952-5.555A7.271,7.271,0,0,1,90.155,56.3l3.656-5.243A7.284,7.284,0,0,1,103.943,49.25ZM91.253,61.163a5.518,5.518,0,0,0,2.285,4.088l6.742,4.706,1.178-1.675ZM65.513,25.642,61.063,15.381l-1.122.481L64.39,26.131Zm3.415,1.05L82.86,58.79a7.274,7.274,0,0,1-3.183,9.275,7.438,7.438,0,0,0,2-8.618L67.693,27.221l-.425.192L80.944,58.926A7.286,7.286,0,0,1,77.168,68.5l-5.86,2.541a7.286,7.286,0,0,1-9.572-3.776L48.061,35.743l1.659-.721h0ZM51.973,34.933l-1.884.818S59.917,58.4,63.2,65.948A5.527,5.527,0,0,0,66.755,69Zm7.856,9.042,1.05-3.279-.465-1.074L55.6,41.715l.561,1.3,2.99-1.3L58.218,45l.361.842.665-.289a5.206,5.206,0,0,1,.818-.281,2.272,2.272,0,0,1,.713-.072,1.118,1.118,0,0,1,.569.208,1.173,1.173,0,0,1,.409.529,1.188,1.188,0,0,1,.1.577,1.508,1.508,0,0,1-.176.577,1.875,1.875,0,0,1-.433.521,3.094,3.094,0,0,1-.673.417,5.024,5.024,0,0,1-.489.168c-.176.048-.345.08-.513.112s-.329.048-.465.056a1.72,1.72,0,0,1-.345.008l.144,1.459a6.332,6.332,0,0,0,1.154-.152,6.549,6.549,0,0,0,1.1-.369,4.767,4.767,0,0,0,1.146-.7,3.448,3.448,0,0,0,.818-.97,3.056,3.056,0,0,0,.361-1.178,2.731,2.731,0,0,0-.232-1.3,2.9,2.9,0,0,0-.609-.9,2.228,2.228,0,0,0-.794-.5,2.166,2.166,0,0,0-.874-.128,2.449,2.449,0,0,0-.866.208Zm6.213,7.608-1.6.7.3.665.85-.369.4.938a.733.733,0,0,1-.16.16,1.125,1.125,0,0,1-.3.176,1.24,1.24,0,0,1-1.082-.024,1.828,1.828,0,0,1-.481-.4,2.729,2.729,0,0,1-.393-.641,3.152,3.152,0,0,1-.224-.778,1.58,1.58,0,0,1,.048-.625,1.151,1.151,0,0,1,.281-.465,1.481,1.481,0,0,1,.465-.313,1.964,1.964,0,0,1,.3-.1l.12-.016.329.737.738-.321-.609-1.387a2.755,2.755,0,0,0-1.259.281,2.548,2.548,0,0,0-.721.473,2.143,2.143,0,0,0-.529.738,2.461,2.461,0,0,0-.2.97,3.1,3.1,0,0,0,.281,1.194,3.468,3.468,0,0,0,.633,1,2.638,2.638,0,0,0,.794.577,2.083,2.083,0,0,0,.882.168,2.443,2.443,0,0,0,.906-.208,3.035,3.035,0,0,0,.705-.433,1.691,1.691,0,0,0,.457-.577Zm2.381-3.511a1.958,1.958,0,0,0-.633.064,4.246,4.246,0,0,0-.657.224l-.393.176-.377.192-.337.184-.273.168,2,4.625a3.655,3.655,0,0,0,.417-.112c.144-.048.289-.1.425-.144s.273-.1.385-.16l.3-.128a2.969,2.969,0,0,0,.641-.369,2.378,2.378,0,0,0,.481-.505,1.405,1.405,0,0,0,.224-.609,1.371,1.371,0,0,0-.12-.7,1.546,1.546,0,0,0-.281-.441,1.166,1.166,0,0,0-.361-.249,1.012,1.012,0,0,0-.409-.088,1.6,1.6,0,0,0-.433.056l-.016-.04a1.222,1.222,0,0,0,.313-.337.976.976,0,0,0,.152-.369,1.185,1.185,0,0,0,.008-.377,1.408,1.408,0,0,0-.112-.369,1.047,1.047,0,0,0-.946-.7ZM65.833,37.747a2.82,2.82,0,0,0-1.01-.064,3.672,3.672,0,0,0-1.034.281,4.2,4.2,0,0,0-1.3.85,5.833,5.833,0,0,0-.842,1.074l1.082.818a3.2,3.2,0,0,1,.537-.754,2.488,2.488,0,0,1,.721-.465,1.982,1.982,0,0,1,.625-.152,1.464,1.464,0,0,1,.569.08,1.3,1.3,0,0,1,.778.681,2.76,2.76,0,0,1,.184.681,3.066,3.066,0,0,1-.016.762,6.6,6.6,0,0,1-.192.906c-.1.329-.216.705-.353,1.122q-.144.433-.313.866c-.112.281-.216.537-.321.778l-.289.657c-.088.192-.16.345-.216.465l.5,1.146L70.2,45.194l-.561-1.3-3.4,1.475c.1-.176.192-.385.3-.625s.208-.5.313-.762.192-.545.289-.834.176-.569.24-.842c.088-.361.16-.681.2-.97a5.154,5.154,0,0,0,.072-.826,3.632,3.632,0,0,0-.088-.729,4.1,4.1,0,0,0-.232-.738,2.2,2.2,0,0,0-.633-.858A2.118,2.118,0,0,0,65.833,37.747ZM50.722,32.063l-1.1.473L45.175,22.275,59.4,16.094l4.457,10.269L52.919,31.109l-.224-.513,1.683-.729-.257-.585-1.675.729-.9-2.06,2.71-1.17-1.227-2.838-2.71,1.178-1.6-3.68-2.2.954Zm9.964-5.636-2.3,1,.257.585,2.3-1Zm-5.443-3.447,1.226,2.838,4.064-1.764L59.3,21.217ZM67.789,49.026a1.591,1.591,0,0,0-.313.1l-.329.144-.224.12.545,1.243.3-.128.216-.1.2-.112a1.349,1.349,0,0,0,.345-.433.544.544,0,0,0,.008-.5.587.587,0,0,0-.192-.257.5.5,0,0,0-.256-.1A.75.75,0,0,0,67.789,49.026Zm.826,1.964a3.307,3.307,0,0,0-.361.136l-.489.208.561,1.283.112-.024.16-.064.176-.064.16-.064a1.527,1.527,0,0,0,.313-.184,1.056,1.056,0,0,0,.224-.24.822.822,0,0,0,.1-.3.7.7,0,0,0-.056-.329.639.639,0,0,0-.241-.3.632.632,0,0,0-.313-.1A1.382,1.382,0,0,0,68.615,50.99Zm-3.7-24.242L48.6,33.827l.441,1.026L65.36,27.766Zm1.05.754,1.852-.8-.449-1.018-1.844.8Z" transform="translate(156.628 60.354)" fill="#035fe1"/>
    <path id="Path_15" data-name="Path 15" d="M61.623,49.387l-8.89,4.505-.81-1.6,8.89-4.505ZM97.1,29.771,93.817,31.43l.665,1.315,3.279-1.659ZM90.017,76.8,69.086,87.4a2.817,2.817,0,0,1-3.776-1.235l-.553-1.1-1.283.649L50.849,60.778l1.275-.649-.7-1.387a2.808,2.808,0,0,1,1.235-3.768l17.612-8.922A20.432,20.432,0,0,0,90.017,76.8Zm-33.7-15.832,8.89-4.505-2.028-3.992-8.89,4.505ZM99.99,31.006,89.9,36.12a20.444,20.444,0,0,1,8.113,2.573,19.4,19.4,0,0,1,6.6,30.719l11.808-5.98a2.815,2.815,0,0,0,1.235-3.776L103.765,32.24A2.805,2.805,0,0,0,99.99,31.006ZM96.655,73.813A19.437,19.437,0,0,1,71.7,45.684l-1.82-3.607.257-3.952,1.178-.593.705,1.4,11.031-5.579-.713-1.411,1.243-.625,3.343,2.124,1.82,3.607a19.438,19.438,0,0,1,7.912,36.763Zm6.405-25.035a17.022,17.022,0,1,0-7.5,22.871A17.026,17.026,0,0,0,103.06,48.778Zm-1.74.874a15.074,15.074,0,1,1-20.257-6.63A15.076,15.076,0,0,1,101.32,49.652Zm-1.058.537a13.889,13.889,0,1,0-6.117,18.67A13.886,13.886,0,0,0,100.262,50.189ZM76.878,61.772a11.935,11.935,0,0,0,7.9,6.221,21.621,21.621,0,0,1,6.974-22.783A11.937,11.937,0,0,0,76.878,61.772Z" transform="translate(196.439 161.32)" fill="#035fe1"/>
    <path id="Path_16" data-name="Path 16" d="M92.482,67.954a3.086,3.086,0,0,1,.729.641,5.891,5.891,0,0,1,1.114,2.645,4.812,4.812,0,0,1,.609,1.194c.946,3.11-1.82,4.225-4.393,4.321-2.012.072-5.01.7-6.253-1.1l-2.116,2.461-.072.08-.072.088-3.639,4.241a2.383,2.383,0,0,1-1.1.641,3.111,3.111,0,0,1-.208.248L56.873,101.935a3.318,3.318,0,0,1,1.531,3.223c-.321,1.916-1.852,4.561-3.7,5.315a1.419,1.419,0,0,1-1.611-.649c-.513-.882-1.8-1.283-2.645-2l-4.161,3.816a29.348,29.348,0,0,0,10.854,5.307C74.228,121.616,79.928,115.3,77.5,107.4s20.306-7.295,25-16.794c4.072-8.249.184-17.925-7.014-24.747A23.223,23.223,0,0,1,92.482,67.954ZM73.018,99.29c-5.122,2.4-1.3,8.562-6.261,9.58-1.78.361-4.954-3.367-1.13-9.94s12.2-8.217,13.652-5.94C80.842,95.442,78.14,96.9,73.018,99.29ZM95.656,80.411a1.267,1.267,0,0,1,.689.329,5.491,5.491,0,0,1,2.381,3.543,7,7,0,0,1-1.916,5.772c-1.748,1.683-4.393.713-5.764-1.026-2.333-2.966-1.034-7.383,2.2-8.449a3.712,3.712,0,0,1,1.034-.313,3.148,3.148,0,0,1,1.347.136Zm-44.8,15.247c-2.084.73-4.489,1.395-6.493.152-3.607-2.229.224-7.094,3.391-7.656a4.694,4.694,0,0,1,2.509-.665c2.213-.008,3.9.866,4.281,3.19a4.813,4.813,0,0,1,.072.874L69.274,75.561a1.192,1.192,0,0,1,.224-.184,2.167,2.167,0,0,1,.585-1.05l2.1-1.8a2.59,2.59,0,0,1-.4-.385c-1.451-1.339-1.042-3.647.176-5.331a7.026,7.026,0,0,1,1.98-2.188c.986-.89,2.164-1.555,3.359-1.138a1.416,1.416,0,0,1,.97,1.347,7.429,7.429,0,0,1,1.138,1.491l2.221-1.9a.771.771,0,0,1,.257-.16.876.876,0,0,1,.192-.233l1.5-1.283a1.048,1.048,0,0,1-.056-.569,12.193,12.193,0,0,1,.882-2.79c-8.858-2.493-19.969-.826-30,4.954C44.864,69.846,38.916,78.127,37.77,88.556c-.617,5.6.1,12.041,3.535,17.524Zm8.425-28.7c1.042-.818,2.758-1.876,4.064-.962a1.5,1.5,0,0,1,.457.505,3.459,3.459,0,0,1,1.411.633c1.611,1.162,3.174,3.92,1.844,5.844-1.395,2.012-4.521,2.084-6.75,1.8-1.916-.233-4.04-1.122-3.856-3.423A6.823,6.823,0,0,1,59.278,66.96ZM47.141,78.936a4.821,4.821,0,0,1,2.132-2.509,4.426,4.426,0,0,1,1.227-.353,5.3,5.3,0,0,1,2.549-1.355,2.782,2.782,0,0,1,2.573,1.371c1.178,1.667,2.172,4.353.89,6.213-1.106,1.6-3.375,1.443-5.179,1.122a3.344,3.344,0,0,1-3.11-1.1A2.68,2.68,0,0,1,47.141,78.936ZM87.447,65.124c.345.337.7.657,1.05.978-.2-.329.489-1.066.489-1.066S92,64.05,96.658,60.05a19.286,19.286,0,0,0,5.908-8.594c.016,5.836-11.912,14.6-13.4,14.782a1.04,1.04,0,0,1-.569-.048c.641.577,1.291,1.122,1.964,1.635,3.351-1.587,7.968-5.171,11.552-11.544,4.882-8.714,2.91-14.7,1.323-10.878s-6.854,3.191-13.347,8.481c-3.968,3.239-5.2,6.453-5.571,8.473l.3-.257A30.987,30.987,0,0,0,87.447,65.124Zm.665-1.259a30.263,30.263,0,0,1,5.411-7.255C97.2,52.939,99.672,52.3,99.672,52.3,94.742,55.184,88.113,63.865,88.113,63.865Zm.208-6.421c2.261-3.832,7.143-5.94,11.023-7.311s4.569-4.273,4.569-4.273c-.176,2.75-3.279,4.545-8.658,7.046s-8.449,8.81-8.449,8.81S86.061,61.268,88.321,57.444ZM74.854,72.219l-1.034.882a1.888,1.888,0,0,1-.056-.593l.994-.85A2.063,2.063,0,0,0,74.854,72.219Zm-1.539.681a1.6,1.6,0,0,0,.04.609l-2.229,1.916a3.59,3.59,0,0,0,.6,1.972c.465-.409,1.339-1.21,2.413-2.229a13.5,13.5,0,0,0,1.435,1.715l.208.2c.994.994,2.758,2.437,3.984,2.269l.393-.449c-1.227.112-2.942-1.3-3.92-2.269l-.208-.208a12.617,12.617,0,0,1-1.419-1.7l1.018-.97a12.768,12.768,0,0,0,1.4,1.667l.208.208c.938.93,2.557,2.269,3.768,2.277l.249-.289-3.639,4.241c-1.138,1.138-3.471-.729-4.674-1.932l-.208-.208c-1.2-1.2-3.07-3.535-1.932-4.674Zm-.641,7.559C70.22,78.006,70,76.275,70,76.275l.024-.024h0L36.712,112.589c-1.138,1.138-1.611,2.509-.473,3.647l.192.192c1.138,1.138,2.509.665,3.647-.473L76.393,82.664S75.118,82.9,72.673,80.459Zm-36.01,33.909-.128-1.13,33.709-36.01.529,1.243Zm51.2-44.443a8.891,8.891,0,0,1-2.886-2.036l-.2-.2a12.253,12.253,0,0,1-1.259-1.483c1.034-1,1.7-1.651,1.7-1.651l-.681-.681L82.95,65.236a3.553,3.553,0,0,1-.208-.433l1.635-1.411a24.415,24.415,0,0,0,4.906,4.882Zm-5.371-4.289-7.175,6.181a2.389,2.389,0,0,1-.1-.553l7.07-6.076A4.42,4.42,0,0,0,82.493,65.637ZM81.4,77.453c-1.2-.056-2.782-1.363-3.7-2.277l-.208-.208A13.79,13.79,0,0,1,76.1,73.317c2.373-2.253,5.122-4.9,6.982-6.686a11.7,11.7,0,0,0,1.267,1.491l.192.2a8.812,8.812,0,0,0,2.942,2.052Z" transform="translate(89.345 262.751)" fill="#035fe1"/>
    <path id="Path_17" data-name="Path 17" d="M104.6,77.112c-3.583,5.475-8.594,7.487-13.4,5.387-4.569-2-7.559-7.135-6.541-11.223a7.825,7.825,0,0,0-1.106-6.614,9.214,9.214,0,0,0-6.285-3.736c-2.012-.192-4.241,1.611-5.764,3.231a4.164,4.164,0,0,0-1.194-1.483c1.7-1.772,4.353-3.9,7.143-3.639A11.109,11.109,0,0,1,85.1,63.572,9.679,9.679,0,0,1,86.5,71.733c-.794,3.191,1.756,7.407,5.459,9.026,3.944,1.724,7.976.016,11.055-4.69,4.369-6.686,4.185-15.576-.5-23.793C98.484,45.191,92.1,40.4,86.981,40.621c-2.95.128-5.227,1.9-6.766,5.259-2.677,5.828-8.754,9.387-13.54,7.936-2.188-.665-7.062-3.463-5.179-15.063,1.515-9.355-5.78-11.087-5.86-11.1l.417-1.852c2.541.561,8.81,4.048,7.311,13.259C62.21,46.185,63.621,50.9,67.228,52c3.848,1.17,9-2,11.255-6.91,2.325-5.058,5.86-6.253,8.417-6.365,5.8-.249,12.9,4.938,17.267,12.618C109.21,60.181,109.37,69.817,104.6,77.112Zm-33.14,3.543-.04.04c-.184.16-.361.313-.545.465l-.337.257h0l-7.311,5.507-12.081,9.1c-1.619,1.339-9.067,4.313-15.448-3.447s-2.036-14.486-.417-15.824l10.878-9.764,7.191-6.461h0l.313-.281c.192-.16.393-.321.6-.473l.016-.008c.208-.16.425-.321.649-.473l.008-.008c.232-.152.465-.3.713-.441h0c3.343-1.956,8.257-2.589,14.686,5.219,5.082,6.181,5.163,10.405,3.712,13.347l-.024.048c-.12.24-.257.473-.393.7l-.048.072c-.136.216-.289.433-.441.633l-.056.072c-.152.2-.313.393-.473.577l-.064.072q-.253.277-.505.529l-.056.056C71.814,80.335,71.637,80.5,71.461,80.655ZM50.987,78.964,57.5,73.609a1.753,1.753,0,0,1,.281-2.18l6.654-5.475a1.752,1.752,0,0,1,2.188.144l2.229-1.828c-3.84-4.465-7.127-5.9-9.852-5.884L46.41,68.743c.072.409.16.81.248,1.218C35.443,80.5,38.6,83.445,38.93,82.8c.4-.762,2.357-3.479,6.862-7.848.617-.6,1.251-1.186,1.884-1.756A22.947,22.947,0,0,0,50.987,78.964ZM66.675,67.372l-.265-.321a1.436,1.436,0,0,0-2.02-.192l-5.724,4.714a1.426,1.426,0,0,0-.192,2.012l.257.321a1.43,1.43,0,0,0,2.02.2l5.732-4.714A1.436,1.436,0,0,0,66.675,67.372Zm7.006,9.163c.633-2.693-.072-6.261-3.8-11.015l-2.229,1.828a1.762,1.762,0,0,1-.281,2.18L60.719,75a1.762,1.762,0,0,1-2.2-.136L52.045,80.2a23,23,0,0,0,9.6,6.245ZM67.268,64.494s-.473-1.523-2.95-3.094-5.291-1.643-8.754,1.034c-3.383,2.629-6.125,4.946-8.345,7a24.515,24.515,0,0,0,.922,3.359A53.751,53.751,0,0,1,59.8,64.8C62.755,63.372,67.268,64.494,67.268,64.494Z" transform="translate(66.476 133.451)" fill="#035fe1"/>
    <path id="Path_18" data-name="Path 18" d="M32.329,54.786l-2.653.914c-.593-3.431-2.2-18.526,14.157-24.177,15.52-5.355,22.967,6.165,24.963,10a4.327,4.327,0,0,0-2.036,3.118c.986-.609,1.788-1.114,2.333-1.459a2.721,2.721,0,0,1,1.01-.625l.04-.008.048-.008a2.782,2.782,0,0,1,3.615,2.9l.553.545a1.03,1.03,0,0,1,.128,1.283c-.016.024-.337.521-.858,1.339a4.285,4.285,0,0,0-2.2-7.68L69.669,18.849a2.8,2.8,0,1,0-2.132-.128,3.18,3.18,0,0,0,.625.208L69.87,40.4c-2.517-4.465-10.686-15.768-26.526-10.3C25.707,36.188,27.7,53.014,28.24,56.2l-2.677.922L27.9,63.893l6.766-2.341Zm-4.85,3.271L31.4,56.7l1.355,3.92-3.92,1.347ZM75.834,75.292a2.8,2.8,0,1,1-3.487-3.848L70.888,53.119c.473-.8.922-1.555,1.331-2.229l1.635,20.442a3.121,3.121,0,0,1,.689.216A2.8,2.8,0,0,1,75.834,75.292Zm-2.2-28.578S63.929,61.48,63.256,67.757c-2.942,2.14-4.994,3.655-4.994,3.655s-4.393-.665-7.567,1.972c-.281.24-.537.465-.794.689l.273.273-.882.874.721.713-6.261,7.952-5.235-5.235-5.243-5.243,7.952-6.261.705.713.882-.874.273.273c.224-.257.449-.513.689-.794,2.637-3.174,1.972-7.567,1.972-7.567S47.263,56.846,49.4,53.9c6.277-.673,21.043-10.381,21.043-10.381l1.283,1.283L59.039,57.7c-2.99-2.237-7.311,2.108-4.858,5.283,3.174,2.453,7.519-1.868,5.283-4.858l12.89-12.69Z" transform="translate(19.023 46.433)" fill="#035fe1"/>
    <path id="Path_19" data-name="Path 19" d="M73.232,91.55H58.843V77.161H73.232ZM99.005,77.161V91.55h14.389V77.161ZM78.042,85.883l1.764-1.764V78.043H92.432V90.676H87.991a4.82,4.82,0,0,1-.337.385l-1.371,1.371H94.2V76.279H78.042ZM64.711,115.519a1.219,1.219,0,0,1,0,1.732l-.409.417a1.234,1.234,0,0,1-1.732,0l-1.034-1.034-9.772,9.78a4.847,4.847,0,0,1-6.854-6.854l9.772-9.78-1.026-1.026a1.219,1.219,0,0,1,0-1.732l.417-.417a1.234,1.234,0,0,1,1.732,0l.77.77.673-.673.713.706,22.39-22.39.633-.633c1.186-1.186,3.11-.449,5.868-1.6l1.691,1.691c-1.106,2.726-.385,4.641-1.611,5.86l-.641.649L63.917,113.363l.705.705-.681.681Zm-10.6-2.365-.729-.721-7.351,7.351a5.033,5.033,0,0,0-1.307,3.094c.794-1.162.689-1.026,3.623-3.96Zm4.69-2.862s-3.022-3.022-3.263-3.271-.689-.24-1.17.3-.361.938-.361.938c.345-.5.93-.826,1.17-.633S58.8,110.293,58.8,110.293ZM81.04,86.837c2.525-2.533,4.417-2.4,5.78-3.295,0,0-4.329.281-6.333,2.285-1.243,1.235-6.822,6.822-11.5,11.5s-9.78,9.852-9.78,9.852l.705.7S78.507,89.362,81.04,86.837Z" transform="translate(145.125 487.639)" fill="#035fe1"/>
    <path id="Path_20" data-name="Path 20" d="M62.594,69.195a2.682,2.682,0,1,0-1.507-3.487A2.678,2.678,0,0,0,62.594,69.195Zm1.812-4.577a2.237,2.237,0,1,1-2.9,1.259A2.245,2.245,0,0,1,64.406,64.617ZM61.456,87.28,51.043,83.151l1.812-4.577L63.268,82.7Zm5.267-28.5a8.517,8.517,0,0,0-5.988-.112l2.317-5.828,10.413,4.12L71.156,62.8A8.495,8.495,0,0,0,66.723,58.781ZM60.446,74.614a8.494,8.494,0,0,0,5.98.112l-2.309,5.836L53.7,76.433,56.013,70.6A8.495,8.495,0,0,0,60.446,74.614ZM74.314,54.821,63.9,50.693l1.812-4.577,10.413,4.128Zm53.533,12.842L116.841,63.3l-2.108.914,12.514,4.962a.748.748,0,0,1,.425.97l-15.023,37.918a.754.754,0,0,1-.978.425L63.252,89.308,78.827,50,105.29,60.481l2.116-.914-40.5-16.041a2.376,2.376,0,0,0-3.086,1.331L48.806,82.774a2.37,2.37,0,0,0,1.331,3.086l60.941,24.145a2.387,2.387,0,0,0,3.086-1.339L129.186,70.75A2.384,2.384,0,0,0,127.848,67.663ZM61.913,88.338l-11.928-4.73L52.4,77.516l11.928,4.73Zm2.661-6.726L52.646,76.89,56.053,68.3a7.7,7.7,0,0,0,11.928,4.722ZM57.792,64.4a6.231,6.231,0,1,1,3.5,8.089A6.232,6.232,0,0,1,57.792,64.4Zm13.323.7a7.7,7.7,0,0,0-11.928-4.722l3.407-8.594L74.523,56.5Zm3.655-9.219L62.843,51.15l2.413-6.084,11.928,4.722Zm6.2,17.412a1.468,1.468,0,0,0-.786.81,1.483,1.483,0,0,0,.032,1.154,1.468,1.468,0,0,0,.81.786,1.436,1.436,0,0,0,1.122-.024l.449-.184,2,.457a.916.916,0,0,0,.417,0l3.615-.794.168-.056L113.57,64.721l12.337,4.89a.719.719,0,0,1,.409.93l-14.389,36.314a.709.709,0,0,1-.93.4L64.614,88.891,79.533,51.238l24.6,9.748L85.946,68.85l-.16.088-3.054,2.084a.9.9,0,0,0-.289.313L81.409,73.1Zm2.3-1.475-1.186,2.036-.738.321a.515.515,0,0,0-.265.673l.016.032a.512.512,0,0,0,.673.265l.729-.321,2.3.537,3.615-.8,39.962-17.283-.184-.433,1.764-.762A1.582,1.582,0,0,0,130.782,54l-.457-1.058a1.576,1.576,0,0,0-2.084-.826l-1.764.762-.184-.433L86.323,69.732Zm18.334-8.7,2.092,4.834-.593.257-2.092-4.834Zm-4.337,3.5a1.144,1.144,0,0,1,1.5.593l.008.016a1.142,1.142,0,0,1-.593,1.5l-5.74,2.485L91.525,69.1Zm-9.059,3.92,2.645-1.146.914,2.108L89.12,72.642a1.141,1.141,0,0,1-1.5-.593l-.008-.024A1.133,1.133,0,0,1,88.207,70.533Z" transform="translate(180.91 256.636)" fill="#035fe1"/>
    <path id="Path_21" data-name="Path 21" d="M134.7,64.24l-1.7.489L134.785,71l-.89.256-1.8-6.269-7.8,2.229,1.788,6.261-.89.257-1.8-6.261L115.6,69.7l1.788,6.261-.89.257-1.8-6.261-7.8,2.229,1.788,6.261-.89.256-1.8-6.261-7.8,2.229,1.788,6.261-.89.257-1.8-6.269-7.8,2.229L91.3,83.415l-.89.257L88.61,77.4l-7.8,2.229L82.6,85.9l-.89.257-1.8-6.269-7.8,2.229L73.9,88.385l-.89.256-1.8-6.269-7.8,2.229L65.2,90.87l-.89.257-1.8-6.269-7.8,2.229L56.5,93.356l-.89.257-1.8-6.269-7.8,2.229,1.788,6.269-.9.256-1.788-6.269-1.691.481,4.385,15.359L139.09,79.6ZM51.519,98.751c-2.95.842-4.249-3.72-1.307-4.561S54.461,97.909,51.519,98.751Z" transform="translate(144.385 403.168)" fill="#035fe1"/>
    <path id="Path_22" data-name="Path 22" d="M34.28,120.315a.829.829,0,0,0,1.267.706L124.553,66.5a.83.83,0,0,0-.433-1.539H104.6v5.3h-.866v-5.3H96.183v5.3h-.866v-5.3l-41.926.008h.7l.008,5.291h-.874V64.97H45.671v5.291h-.866V64.97h-9.7a.838.838,0,0,0-.834.834Zm87.154-55.353.008,3.423-.874.529V64.962Zm-8.417,0v5.3h-.866v-5.3Zm-25.252,0v5.3H86.9v-5.3Zm-8.417.008v5.291h-.866V64.97Zm-8.417,0v5.291h-.866l-.008-5.291Zm-8.417,0v5.291H61.64V64.97ZM47.066,75.944,83.8,75.936a1.723,1.723,0,0,1,.906,3.19l-36.731,22.5a1.72,1.72,0,0,1-2.621-1.467l-.008-22.494A1.721,1.721,0,0,1,47.066,75.944Zm-6.822,28.667c3.607,0,3.607,5.6,0,5.6S36.637,104.611,40.244,104.611ZM37.254,64.97v5.291h-.866V64.97Z" transform="translate(80.129 408.234)" fill="#035fe1"/>
    <path id="Path_23" data-name="Path 23" d="M64.6,55.045v.008L49.446,60.3a2.7,2.7,0,0,0-1.667,3.439L67.651,121.14a2.707,2.707,0,0,0,3.447,1.667l8.345-2.886,8.922,4.5A2.705,2.705,0,0,0,92,123.224l.449-.9a2.7,2.7,0,0,0,2.79-2.084l.89-3.848a2.6,2.6,0,0,0,.3-1.291l-.04-1.98h0l.04,1.932.273-1.162,22.638-44.916a2.705,2.705,0,0,0-1.194-3.631l-7.111-3.583h0l-.673,2.477,7.095,3.575-6.173,12.249L106.7,77.747l-.521,1.924L110.41,81.8l-6.173,12.241-1.724-.866-.521,1.916,1.363.689-3.351,6.654-2.878,10.606,1.78-8.425-.128.257,10.085-43.834a2.7,2.7,0,0,0-2.028-3.247L100.1,56.247l-2.421-.553-.056,2.565,9.131,2.1-3.07,13.363L97.32,72.264l-.04,1.988,5.964,1.371-3.078,13.363-3.19-.738-.048,1.988,2.806.649L96.654,104.25l-.032-.008-.128,6.052-.289-6.149-.016-.008.144,6.622h0S95.163,55.566,95.147,54.4a5.32,5.32,0,0,0-.128-1.17,2.46,2.46,0,0,0-2.7-1.507l-14.3.321.778,2.5,14.085-.313.3,13.708-10.141.224.609,1.932,9.572-.208.3,13.708-5.628.128.6,1.932,5.066-.112.3,13.708-1.122.024.609,1.94.561-.016.04,1.948,2.373,7.608-19.736-57a2.7,2.7,0,0,0-3.439-1.667l-.208.072-5.716.128A2.691,2.691,0,0,0,64.6,55.045ZM93.52,117.877l-.377,1.635L86.7,118.03l7.095-.16Zm-13.139,1.715L92,122.27l-1.788-.409-.072.152-.633-.321-9.123-2.1Zm-.738-10.421a3.572,3.572,0,1,1-2.2,4.545A3.569,3.569,0,0,1,79.644,109.172Z" transform="translate(173.842 315.237)" fill="#035fe1"/>
    <path id="Path_24" data-name="Path 24" d="M40.749,93l1.178,6.052-3.319.649-3.287-5.643ZM51,85.911l3.086,15.9C43.763,99,43.138,100.389,42.889,99.1l-1.259-6.477C41.382,91.33,42.473,92.38,51,85.911Zm-6.477,6.91c1.2-1.194,5.026-3.623,5.892-4.906a43.6,43.6,0,0,1-5.034,3.239c-2.092,1.042-3.118,1.178-2.894,2.317l.505,2.637A6.779,6.779,0,0,1,44.525,92.821Zm70.584-2.533-3.2-16.506a3.13,3.13,0,0,0-2.95-1.788l4.088,21.051A3.108,3.108,0,0,0,115.109,90.288Zm1.162-.224A2.443,2.443,0,0,0,118.2,87.2L115.927,75.49a2.433,2.433,0,0,0-2.862-1.932l-.192.032L116.079,90.1Zm-3.72,3.126L63.027,102.8l-4.1-21.147,49.525-9.612Zm-51.994-6.4L107.8,75.738l-.353-1.812L59.852,83.162Zm-2-3.383-1.708.329.705,3.639,1.707-.337Zm-2.509-1.194,4.1,21.147-1.379.265a3.12,3.12,0,0,1-3.407-1.724l-.417.056-3.2-16.506.4-.1a3.123,3.123,0,0,1,2.517-2.87Zm-.9,1.86A2.328,2.328,0,0,0,53.3,86.8l2.75,14.157S54.7,91.843,54.674,88.8c-.032-3.375,1.154-4.858,1.154-4.858Z" transform="translate(87.496 457.557)" fill="#035fe1"/>
    <path id="Path_25" data-name="Path 25" d="M91.672,82.169l.152.954-44.034,7h0L44,89.856a3.5,3.5,0,0,0-.489-2.9l3.543-1.443V85.5l44.034-7,.152.962-43.705,6.95-3.455,1.106,2.974-.665.521-.08L91.3,79.828l.3,1.892L47.862,88.67l-3.527.449,3.174.064.449-.072Zm-48.2,6.894a1.524,1.524,0,0,0-.208-1.323q.036-.12.072-.216A1.468,1.468,0,0,1,43,87.1l-3.623,1.17a1.487,1.487,0,0,1,.353.778,1.631,1.631,0,0,1-.08.826l3.712-.016a1.341,1.341,0,0,1,.24-.6A1.176,1.176,0,0,1,43.469,89.063ZM38.8,88.477l-1.659.665c-.321.176-.273.513.088.593l1.8.12a1.5,1.5,0,0,0-.232-1.379Zm62.985-6.942a.938.938,0,0,0,.778-1.066l-.441-2.774a.93.93,0,0,0-1.074-.77l-2.2.345.738,4.617ZM95.3,79.122l.561,3.527.313-.056-.561-3.519Zm-.553.088.561,3.527.313-.056-.561-3.519Zm.208-.713-.12-.754-.313.048.12.753Zm.553-.088-.12-.754-.313.048.12.754Zm2.79-1.218-2.669.425.12.754,2.5-.393.1.665-2.5.393.561,3.527,2.669-.425ZM92,79.651l-.112-.665,2.5-.4-.112-.754-2.677.425.786,4.938,2.677-.425L94.5,79.251Z" transform="translate(98.78 492.082)" fill="#035fe1"/>
    <path id="Path_26" data-name="Path 26" d="M54.088,84.708l-4.016.882,7.9,15.287a2.741,2.741,0,0,0,1.948,4.874l-1.635,5.668L45.454,86.6l-3.928.858-.192-.874,3.7-.81-7.72-14.919a3.44,3.44,0,0,0,4.056-2.1l8.281,16.009,4.249-.93ZM65.4,122.7l-2.653.577.273,1.243,2.653-.577Zm-.313-80.613L63.6,51.769l2.068-.008ZM64.621,58.15a3.523,3.523,0,0,1,2.245.962l.152-3.383-.561-2.966-3.511-.16-.489,2.91L62.3,58.9A3.5,3.5,0,0,1,64.621,58.15Zm-3.319,3.4a3.158,3.158,0,1,1,3.006,3.3A3.161,3.161,0,0,1,61.3,61.549Zm3.046,2.485a2.339,2.339,0,1,0-2.229-2.445A2.334,2.334,0,0,0,64.349,64.034Zm-33.2-9.4.978-.593L30.2,50.887a.323.323,0,0,0-.569.3Zm1.748,4.545,1.98-1.05-2.076-3.5-1.555.85ZM62.4,102.424a2.751,2.751,0,0,1-1.756,3.174l3.832,4.465H64.5l1.291-27.913,4.056-.89-.192-.874-3.816.834.77-16.722a3.478,3.478,0,0,1-4.553-.208l-.834,17.941-4.153.914.192.874,3.912-.858-.794,17.187A2.775,2.775,0,0,1,62.4,102.424Zm3.118,2.629-.088,1.892a7.412,7.412,0,1,1-9.291,2.044l-.866-1.683a9.153,9.153,0,1,0,10.245-2.253ZM33.3,63.1l1.587,3.062a3.519,3.519,0,0,1,1.627-1.82,3.478,3.478,0,0,1,2.429-.273L37.357,61l-1.651-2.437L32.58,60.178Zm7.632,2.91a3.157,3.157,0,1,1-4.257-1.355A3.152,3.152,0,0,1,40.933,66.014Zm-3.88-.633a2.341,2.341,0,1,0,3.15,1A2.345,2.345,0,0,0,37.053,65.381Zm23.119,39.761a2.179,2.179,0,1,1,1.659-2.589A2.17,2.17,0,0,1,60.172,105.142Zm.834-2.413a1.333,1.333,0,1,0-1.018,1.6A1.326,1.326,0,0,0,61.006,102.729Zm1.651,22.454,1.924,8.794,2.734-.593.89-.192L66.281,124.4l-.89.192ZM55.547,79.874l-1.732.377L55.515,88l1.724-.385Z" transform="translate(47.374 247.72)" fill="#035fe1"/>
    <path id="Path_27" data-name="Path 27" d="M75.845,27.9l6.221,6.405L76.96,36.736h-.08l-.633-6.83Zm-.6,8.826-.8-8.626L73.5,23.445l.1-.04,2.83,3.639L82.515,33.3l.056-.128c.521-1.018,1.748-1.571,3.463-1.571l5.034.032L73.537,15.084l-3.5,1.659L71.284,36.7Zm7.72-.8a4.163,4.163,0,0,1-.4-.721l-3.255,1.539,4.273.024Zm14.79-4.241.12.008a8.2,8.2,0,0,1,1.507-3.014,13.506,13.506,0,0,1,1.451-1.547,12.434,12.434,0,0,1-1.218-.866l-.064.032a1.041,1.041,0,0,1-.433.1,1.03,1.03,0,0,1-.529-.144,14.273,14.273,0,0,1-1.467-1.034c-.481-.393-.978-.834-1.475-1.315-.481-.473-.954-.986-1.395-1.515a15.918,15.918,0,0,1-1.162-1.611,1.025,1.025,0,0,1-.024-1.058c.152-.249.329-.5.5-.754H89.69a4.184,4.184,0,0,0-4.177,4.177v1.844l7.054,6.654Zm23.3-6.285q.481,1.022.866,1.756c.128.265.281.537.433.81l.12-.032V23.148a4.179,4.179,0,0,0-4.177-4.177h-.064c.257.593.505,1.17.729,1.716C119.6,22.226,120.3,23.813,121.058,25.4ZM119.7,37.69a8.273,8.273,0,0,1-1-1.058l-.369.176a1,1,0,0,1-.433.1.981.981,0,0,1-.665-.249,10.286,10.286,0,0,1-.786-.778,7.3,7.3,0,0,1-.617,1.884,8.229,8.229,0,0,1-1.531,2.092,8.727,8.727,0,0,1-2.453,1.683,9.9,9.9,0,0,1-1.836.657L121.29,58.051a3.206,3.206,0,0,1,.577,1.259,4.283,4.283,0,0,0,.609-2.18V36.159c-.417.289-.818.545-1.17.77Zm-50.1-11.7a4.5,4.5,0,0,0-2.221,3.872V36.68l2.894.016Zm39.465-4.313a22.533,22.533,0,0,0-1.235-2.7h-4.778c-.176.16-.353.321-.513.5l.417,5.948c.168-.12.321-.249.5-.369C104.969,24.014,106.853,22.875,109.057,21.673Zm17.115,8.089a11.536,11.536,0,0,1-1.267,1.291q-.842.746-1.78,1.515c-.625.505-1.267.978-1.908,1.419s-1.21.818-1.716,1.138l-1.611.762a7.782,7.782,0,0,1-1.6-1.908c-.4-.689-.874-1.555-1.395-2.581l-.24.112a6.53,6.53,0,0,1,.064,2.2,7.091,7.091,0,0,1-.705,2.245,7.861,7.861,0,0,1-1.531,2.092,8.569,8.569,0,0,1-2.445,1.683,11.177,11.177,0,0,1-1.4.537l-3.856-5.411a9.142,9.142,0,0,0-5.868-3.078,7.055,7.055,0,0,1,1.283-2.477,16.638,16.638,0,0,1,3.832-3.415,68.934,68.934,0,0,1,6.309-3.744,16.078,16.078,0,0,0-3.158-5.8,3.258,3.258,0,0,0-3.976-.433,8.176,8.176,0,0,0-2.469,1.756l.465,6.726-2.076.994h-.008a14.219,14.219,0,0,1-1.347-.954c-.465-.377-.938-.794-1.4-1.251a17.11,17.11,0,0,1-1.315-1.435,14.071,14.071,0,0,1-1.1-1.507,15.937,15.937,0,0,1,3.72-4.136,27.4,27.4,0,0,1,5.668-3.559,15.06,15.06,0,0,1,4.682-1.5,7.375,7.375,0,0,1,3.439.337,6.215,6.215,0,0,1,2.477,1.748,12.044,12.044,0,0,1,1.772,2.758c.9,1.892,1.675,3.623,2.317,5.187s1.355,3.158,2.116,4.77c.329.689.625,1.291.882,1.788s.545,1.01.874,1.547l3.5-1.074Zm-12.433.617a10.764,10.764,0,0,0-.112-1.283l-2.245-4.73a29.692,29.692,0,0,0-3.5,2.012,6.318,6.318,0,0,0-1.86,1.836,3.159,3.159,0,0,0-.457,1.9,6.331,6.331,0,0,0,.649,2.156,4.59,4.59,0,0,0,2.172,2.389,3.259,3.259,0,0,0,2.838-.128,3.947,3.947,0,0,0,1.523-1.186,5.036,5.036,0,0,0,.778-1.475A4.032,4.032,0,0,0,113.739,30.379Zm-2.212-3.327a20.679,20.679,0,0,0-1.844,1.138,6.092,6.092,0,0,0-1.852,1.836,3.111,3.111,0,0,0-.465,1.9c.016.152.04.313.072.473A3.216,3.216,0,0,0,108.8,33.73a1.951,1.951,0,0,0,.818.176,2.715,2.715,0,0,0,1.17-.3,2.9,2.9,0,0,0,1.138-.874,4.343,4.343,0,0,0,.633-1.178,3.342,3.342,0,0,0,.16-1.138c-.016-.385-.04-.729-.08-1.018Zm-4.3,13.011-1.523-2.14-1.756-2.469c-1.074-1.5-3.848-2.734-6.2-2.75l-11.664-.08c-2.357-.016-3.383,1.194-2.293,2.7l1.8,2.477-31.344-.176c-2.549-.016-3.615,1.307-2.389,2.966L65.24,58.6a8.948,8.948,0,0,0,6.477,2.87H118.14c2.4,0,3.439-1.267,2.325-2.83Z" transform="translate(199.909 29.492)" fill="#035fe1"/>
    <path id="Path_28" data-name="Path 28" d="M84.936,78.491l-9.812,9.491,2.357,13.452a2.344,2.344,0,0,1-3.407,2.477l-12.065-6.4-12.065,6.4a2.344,2.344,0,0,1-3.407-2.477l2.349-13.452-9.8-9.491a2.344,2.344,0,0,1,1.3-4.008L53.9,72.559l6-12.257a2.346,2.346,0,0,1,4.217,0l6,12.257,13.524,1.924A2.347,2.347,0,0,1,84.936,78.491Zm-.561-22.823H65.167V57.2H84.374ZM35.747,83.959v17.965H37.3V83.959ZM86.715,59.645V77.634H88.27V59.645ZM58.842,55.669H39.579V57.2H58.842Zm27.873,28.29v17.965H88.27V83.959ZM65.167,105.923H84.374v-1.531H65.167Zm-25.588,0H58.842v-1.531H39.579ZM37.3,77.634V59.645H35.747V77.634Zm26.847-23.3H59.868v4.289h4.281Zm21.243,28.6h4.289V78.652H85.393Zm0-28.6v4.289h4.289V54.338Zm-46.832,0H34.272v4.289h4.289ZM85.393,107.23h4.289v-4.289H85.393Zm-25.524,0h4.281v-4.289H59.868Zm-25.6,0h4.289v-4.289H34.272Zm0-24.29h4.289V78.652H34.272Z" transform="translate(80.129 333.692)" fill="#035fe1"/>
    <path id="Path_29" data-name="Path 29" d="M83.286,34.928A25.709,25.709,0,1,0,57.578,60.636,25.705,25.705,0,0,0,83.286,34.928ZM57.578,55A20.073,20.073,0,1,1,77.442,32.17h2.237v5.379H77.466A20.07,20.07,0,0,1,57.578,55ZM72.488,37.549h4.12a19.24,19.24,0,1,1-.024-5.379h-4.12a15.152,15.152,0,1,0,.024,5.379ZM57.578,20.7a14.233,14.233,0,1,0,14.1,16.1h6.982V33.052H71.678A14.221,14.221,0,0,0,57.578,20.7Zm0,26.318a12.089,12.089,0,1,1,12.1-12.089A12.092,12.092,0,0,1,57.578,47.016ZM65.7,27.528A20.42,20.42,0,0,0,50.651,43.473,11.01,11.01,0,1,1,65.7,27.528Zm35.416,10.309c-1.788-1.74-5.475-.248-7.984,1.8-4.874,3.968-3.383,6.886-2.894,8.145A130.521,130.521,0,0,1,78.22,59.289c-5.756,5.01-12.642,6.421-13.027,13.067-.04.681-1.05,1.659-.249,2.557l.008.016.032.032.032.032.016.008c.922.778,1.876-.257,2.557-.313,6.63-.569,7.848-7.5,12.706-13.379A129.168,129.168,0,0,1,91.471,48.98c1.275.457,3.295,2.573,8.064-3.118C101.612,43.385,102.862,39.537,101.115,37.838ZM90.084,48.78c-.609.649-8.666,9.042-11.792,12.017s-7.143,5.836-9.772,8.69a25.83,25.83,0,0,0-3.407,4.922c-.2-.024-.2-.473-.008-.954a15.515,15.515,0,0,0,.593-2.6c.248-1.371,1.539-3.046,3.359-4.585s7.078-4.73,11.327-8.425,9.988-9.764,9.988-9.764C90.4,48.219,90.693,48.131,90.084,48.78Zm6.694-.649a3.776,3.776,0,0,1-4.8.521c2.95.232,6.71-2.565,9.435-9.107a4.828,4.828,0,0,1-.561,3A17.185,17.185,0,0,1,96.778,48.131Z" transform="translate(63.268 17.119)" fill="#035fe1"/>
    <path id="Path_30" data-name="Path 30" d="M104.168,121.965l-6.718,7.856-.882-.754,6.237-7.295a7.532,7.532,0,0,0-.834-10.622l-5.026-4.3a7.634,7.634,0,0,0-1-.713,7.324,7.324,0,0,1,2.573,1.411l4.85,4.152A7.276,7.276,0,0,1,104.168,121.965Zm-1.788-.7-6.309,7.375-15.913-13.6,6.3-7.367a7.285,7.285,0,0,1,10.261-.81l4.85,4.152A7.275,7.275,0,0,1,102.38,121.268ZM91.767,107.479a5.539,5.539,0,0,0-4.3,1.868L82.131,115.6l1.555,1.331Zm1.82-17.909,10.654-3.423-.377-1.162L93.218,88.408Zm-1.371,3.295L58.9,103.583a7.277,7.277,0,0,1-8.922-4.064,7.445,7.445,0,0,0,8.385,2.83L91.8,91.591l-.144-.449-32.7,10.526a7.279,7.279,0,0,1-9.155-4.7l-1.956-6.076a7.273,7.273,0,0,1,4.7-9.155l32.7-10.526.561,1.724h0ZM85.666,75.189l-.625-1.956S61.537,80.793,53.7,83.318a5.5,5.5,0,0,0-3.383,3.239ZM75.9,82.123l3.158,1.363,1.114-.361-1.611-4.994-1.347.433,1,3.094-3.183-1.243-.874.281.216.681a5.361,5.361,0,0,1,.208.842,2.175,2.175,0,0,1,0,.722,1.123,1.123,0,0,1-.265.545,1.168,1.168,0,0,1-.561.353,1.214,1.214,0,0,1-.585.04,1.493,1.493,0,0,1-.561-.232,1.955,1.955,0,0,1-.481-.481,2.613,2.613,0,0,1-.337-.705,3.7,3.7,0,0,1-.128-.513c-.024-.176-.048-.345-.056-.521s-.016-.329-.016-.465a1.975,1.975,0,0,1,.024-.345H70.163a5.643,5.643,0,0,0,.04,1.162,6.013,6.013,0,0,0,.256,1.138,4.623,4.623,0,0,0,.577,1.2,3.715,3.715,0,0,0,.89.914,3.058,3.058,0,0,0,1.13.473,2.97,2.97,0,0,0,2.277-.625,2.342,2.342,0,0,0,.569-.738,2.152,2.152,0,0,0,.216-.858,2.531,2.531,0,0,0-.128-.882Zm-8.185,5.435-.529-1.667-.7.225.281.89-.962.3a.592.592,0,0,1-.152-.176,1.122,1.122,0,0,1-.144-.313,1.234,1.234,0,0,1-.056-.561,1.151,1.151,0,0,1,.192-.513,1.443,1.443,0,0,1,.441-.441,2.345,2.345,0,0,1,.681-.329,2.918,2.918,0,0,1,.794-.152,1.426,1.426,0,0,1,.609.112,1.049,1.049,0,0,1,.441.321,1.349,1.349,0,0,1,.265.5,1.243,1.243,0,0,1,.072.313l.008.12-.77.248.248.77,1.435-.465a2.605,2.605,0,0,0,.008-.561,3.334,3.334,0,0,0-.152-.721,2.947,2.947,0,0,0-.4-.77,2.21,2.21,0,0,0-.681-.593,2.258,2.258,0,0,0-.954-.289,2.922,2.922,0,0,0-1.21.16,3.4,3.4,0,0,0-1.066.529,2.509,2.509,0,0,0-.649.729,2.072,2.072,0,0,0-.248.866,2.307,2.307,0,0,0,.12.922,2.523,2.523,0,0,0,.361.738,1.583,1.583,0,0,0,.521.513Zm3.263,2.718a1.912,1.912,0,0,0,0-.641,4.4,4.4,0,0,0-.16-.681l-.136-.4-.152-.393-.152-.353-.136-.3-4.8,1.547a3.043,3.043,0,0,0,.064.425c.032.144.072.3.112.441s.072.273.112.4l.1.3a3.291,3.291,0,0,0,.313.681,2.048,2.048,0,0,0,.449.521,1.368,1.368,0,0,0,.593.289,1.324,1.324,0,0,0,.7-.056,1.45,1.45,0,0,0,.473-.233,1.1,1.1,0,0,0,.281-.337,1.121,1.121,0,0,0,.128-.4,1.57,1.57,0,0,0-.016-.433l.048-.016a1.307,1.307,0,0,0,.3.353,1.355,1.355,0,0,0,.353.184.993.993,0,0,0,.377.04,1.424,1.424,0,0,0,.377-.072,1.045,1.045,0,0,0,.786-.866ZM81.514,88.7a2.767,2.767,0,0,0,.16-1,3.75,3.75,0,0,0-.176-1.058,4.116,4.116,0,0,0-.721-1.371,6.077,6.077,0,0,0-.986-.946l-.922,1a2.8,2.8,0,0,1,.7.609,2.4,2.4,0,0,1,.393.754,1.822,1.822,0,0,1,.088.641,1.557,1.557,0,0,1-.128.561,1.464,1.464,0,0,1-.313.441,1.247,1.247,0,0,1-.441.265,2.35,2.35,0,0,1-.7.112,3.243,3.243,0,0,1-.762-.08,6.576,6.576,0,0,1-.882-.289c-.321-.128-.681-.281-1.074-.457-.289-.12-.561-.257-.834-.393s-.521-.273-.754-.4l-.617-.345c-.184-.1-.329-.192-.441-.265l-1.186.377,1.756,5.467L75.02,91.9l-1.13-3.527c.16.1.353.224.585.353s.473.257.729.385.521.248.8.369.545.232.818.329c.345.12.657.216.946.3a5.225,5.225,0,0,0,.81.144,4.529,4.529,0,0,0,.738-.008,4.764,4.764,0,0,0,.754-.168A2.194,2.194,0,0,0,81.514,88.7Zm7.135-14.478-.361-1.138,10.646-3.431,4.754,14.766L93.033,87.847,89.386,76.5l.529-.168.561,1.74.609-.192-.561-1.748,2.132-.681.906,2.806,2.942-.946L95.6,74.508l3.816-1.234L98.677,71ZM93.282,84.7l-.77-2.389-.609.2.77,2.381Zm3.96-5.082L94.3,80.56l1.355,4.209,2.942-.946ZM70.1,89.547a2.3,2.3,0,0,0-.072-.321l-.12-.337-.1-.24-1.291.417.1.313.08.225.088.216a1.4,1.4,0,0,0,.4.385.567.567,0,0,0,.5.056.609.609,0,0,0,.273-.168.483.483,0,0,0,.12-.248A.912.912,0,0,0,70.1,89.547Zm-2.044.625a3.122,3.122,0,0,0-.1-.369l-.16-.5-1.331.425.016.12.04.168.056.184.048.16a1.227,1.227,0,0,0,.152.329.931.931,0,0,0,.216.249.693.693,0,0,0,.281.128.615.615,0,0,0,.337-.024.625.625,0,0,0,.329-.2.688.688,0,0,0,.128-.3A1.11,1.11,0,0,0,68.054,90.172Zm24.5-1.3L87.1,71.935l-1.058.337L91.486,89.21Zm-.858.97.617,1.916,1.058-.337-.617-1.916Z" transform="translate(172.885 441.183)" fill="#035fe1"/>
    <path id="Path_31" data-name="Path 31" d="M80.59,66.535l-2.477-9.652,1.732-.449,2.477,9.652Zm11.5,38.871-.914-3.559-1.427.369.914,3.551ZM47.69,88.339,41.862,65.613a2.816,2.816,0,0,1,2.02-3.423l1.194-.3L44.724,60.5,71.8,53.548l.361,1.395,1.5-.385a2.813,2.813,0,0,1,3.423,2.02l4.9,19.119A20.44,20.44,0,0,0,47.69,88.339Zm22.75-29.492,2.469,9.66,4.345-1.114-2.477-9.652Zm19.817,49.116L87.444,97a20.552,20.552,0,0,1-4.273,7.367,19.408,19.408,0,0,1-31.416-.192L55.041,117a2.813,2.813,0,0,0,3.423,2.02l29.765-7.632A2.815,2.815,0,0,0,90.257,107.963Zm-41.084-12.5A19.438,19.438,0,0,1,82.033,77.18l3.92-1.01,3.8,1.114.329,1.275-1.531.385L91.62,90.92l1.531-.393.345,1.347L90.7,94.68l-3.92,1a19.438,19.438,0,0,1-37.6-.216Zm23.063,11.656A17.018,17.018,0,1,0,51.522,94.865,17.023,17.023,0,0,0,72.237,107.122Zm-.481-1.884A15.074,15.074,0,1,1,82.61,86.888,15.073,15.073,0,0,1,71.756,105.238Zm-.3-1.146a13.89,13.89,0,1,0-16.9-10A13.89,13.89,0,0,0,71.459,104.091ZM65.206,78.76a11.933,11.933,0,0,0-7.784,6.365A21.63,21.63,0,0,1,78.161,96.861a11.931,11.931,0,0,0-12.954-18.1Z" transform="translate(132.765 328.149)" fill="#035fe1"/>
    <path id="Path_32" data-name="Path 32" d="M119.537,44.912a3.362,3.362,0,0,1-.056,1.058,6.32,6.32,0,0,1-1.515,2.742,5.1,5.1,0,0,1-.617,1.331c-2.036,2.926-4.866,1.3-6.686-.85-1.419-1.675-3.984-3.832-3.287-6.117l-3.535-.152-.128-.008h-.12l-6.1-.257a2.543,2.543,0,0,1-1.3-.513,1.708,1.708,0,0,1-.353-.016L66.253,37.3a3.616,3.616,0,0,1-1.732,3.487c-1.86,1.026-5.171,1.5-7.07.417a1.55,1.55,0,0,1-.529-1.828c.409-1.034-.12-2.413-.08-3.615l-6.092-.994A32.235,32.235,0,0,0,53.53,47.686C61.09,65.522,70.365,66.14,75.519,58.725s20,12.506,31.336,10.109c9.836-2.076,15.52-11.96,16.506-22.759A27.841,27.841,0,0,1,119.537,44.912Zm-40.09,4.473c-5.523-2.782-8.233,4.674-12.466,1.1-1.515-1.283-.457-6.541,7.776-7.7S90.077,47.71,89.1,50.5C88.049,53.506,84.971,52.167,79.448,49.385Zm31.536,6.67a1.407,1.407,0,0,1,.184.818,5.99,5.99,0,0,1-1.435,4.441,7.655,7.655,0,0,1-6.253,2.269c-2.629-.361-3.583-3.295-3.014-5.652.97-4.008,5.644-5.884,8.746-3.832a4.153,4.153,0,0,1,.962.681,3.353,3.353,0,0,1,.794,1.251Zm-43.4-28.178c-2.044-1.3-4.241-2.91-4.529-5.475-.529-4.6,6.253-4.6,8.874-2.269A5.2,5.2,0,0,1,74.2,21.841c1.507,1.9,1.9,3.944.152,5.844a5.284,5.284,0,0,1-.705.649l23.664,1.78a1,1,0,0,1,.3.072,2.391,2.391,0,0,1,1.3-.208l2.974.585a2.67,2.67,0,0,1,.064-.609c.168-2.148,2.421-3.359,4.7-3.455a7.625,7.625,0,0,1,3.223.224c1.427.249,2.79.8,3.239,2.116a1.544,1.544,0,0,1-.5,1.748,8.454,8.454,0,0,1-.513,1.98l3.134.617a1.317,1.317,0,0,1,.313.112,1.507,1.507,0,0,1,.329.016l2.124.417a1.2,1.2,0,0,1,.441-.433,13.533,13.533,0,0,1,3-1.13c-3.848-9.3-12.8-17.708-24.546-22.414C85.708,5.271,74.566,5.768,64.834,11.837,59.6,15.1,54.549,20.061,52.168,26.723Zm30.35-12.169c1.411.337,3.479,1.1,3.575,2.846a1.542,1.542,0,0,1-.128.729,3.747,3.747,0,0,1,.417,1.635c.088,2.172-1.218,5.387-3.776,5.539-2.677.168-4.85-2.469-6.116-4.569-1.09-1.812-1.772-4.241.337-5.636C93.869,15.18,96.114,15.276,97.933,15.709ZM79.439,13.376a5.315,5.315,0,0,1,3.591.136,5.223,5.223,0,0,1,1.138.818A5.849,5.849,0,0,1,87.055,15.6a3.027,3.027,0,0,1,.561,3.142c-.633,2.132-2.269,4.81-4.738,4.962-2.124.136-3.511-1.924-4.465-3.688a3.675,3.675,0,0,1-1.162-3.415A2.938,2.938,0,0,1,79.439,13.376Zm39.128,25.292c-.056.529-.088,1.042-.128,1.563.144-.393,1.243-.3,1.243-.3s2.886,1.924,9.475,3.215a21.026,21.026,0,0,0,11.375-.738c-4.994,3.968-20.586-.361-21.756-1.507a1.1,1.1,0,0,1-.345-.521c-.064.938-.1,1.868-.072,2.8,3.623,1.8,9.828,3.351,17.724,2.108,10.79-1.691,14.606-7.431,10.245-6.221s-7.375-3.728-16.313-5.724c-5.467-1.227-9.067-.112-11.055.938l.425.088A32.808,32.808,0,0,0,118.567,38.668Zm1.531-.281a32.994,32.994,0,0,1,9.892-.249c5.636.665,7.864,2.365,7.864,2.365C132.043,38.219,120.1,38.387,120.1,38.387Zm5.66-4.161c4.818-.649,9.932,2.124,13.74,4.529s6.758,1.034,6.758,1.034c-2.485,1.707-6.125.249-11.912-2.669s-13.283-1.307-13.283-1.307S120.94,34.868,125.758,34.226Zm-21.8-1.579-1.459-.289a2.078,2.078,0,0,1,.473-.449l1.4.273A2.608,2.608,0,0,0,103.954,32.647Zm-1.627-.866a1.86,1.86,0,0,0-.5.449l-3.15-.617a3.908,3.908,0,0,0-1.291,1.852c.665.128,1.948.329,3.551.569a14.371,14.371,0,0,0-.505,2.389l-.04.321c-.176,1.523-.224,4.016.754,4.954l.649.024c-.922-.97-.874-3.4-.7-4.9l.04-.321a13.988,13.988,0,0,1,.489-2.365l1.523.224a14.245,14.245,0,0,0-.473,2.325l-.04.321c-.168,1.435-.224,3.736.593,4.778l.409.016-6.1-.257c-1.756-.208-1.724-3.479-1.507-5.323l.04-.321c.216-1.844.962-5.026,2.71-4.818ZM95.4,36.343c.449-3.768,1.788-5.114,1.788-5.114h.032L43.47,27.18c-1.756-.208-3.247.313-3.455,2.06l-.04.3c-.208,1.756,1.13,2.605,2.878,2.814l53.165,8.682S94.951,40.11,95.4,36.343Zm-53.493-8,.882-.866,53.742,4.6-.713,1.291Zm72.821,13.932a9.657,9.657,0,0,1-.208-3.856l.04-.3a12.924,12.924,0,0,1,.425-2.092c1.563.216,2.565.353,2.565.353l.128-1.058-2.253-.433a3.71,3.71,0,0,1,.232-.473l2.317.449a29.11,29.11,0,0,0-.7,3.672,28.241,28.241,0,0,0-.184,3.848Zm.048-7.519-10.157-1.98a2.264,2.264,0,0,1,.4-.465l10,1.972A5.2,5.2,0,0,0,114.776,34.756Zm-10.894,7.062c-.762-1.074-.713-3.311-.545-4.73l.04-.313a13.92,13.92,0,0,1,.473-2.309c3.543.505,7.672,1.082,10.469,1.467a14.025,14.025,0,0,0-.433,2.1l-.032.3a9.5,9.5,0,0,0,.216,3.912Z" transform="translate(119.991 0)" fill="#035fe1"/>
    <path id="Path_33" data-name="Path 33" d="M111.418,21.608c5.339,3.792,7.159,8.874,4.874,13.6-2.164,4.481-7.415,7.279-11.463,6.1a7.821,7.821,0,0,0-6.646.858A9.241,9.241,0,0,0,94.206,48.3c-.273,2.012,1.451,4.3,3.014,5.884a4.189,4.189,0,0,0-1.531,1.146c-1.707-1.772-3.736-4.505-3.367-7.279a11.115,11.115,0,0,1,4.826-7.479,9.65,9.65,0,0,1,8.209-1.082c3.158.914,7.471-1.467,9.227-5.114,1.876-3.872.321-7.96-4.265-11.223-6.509-4.617-15.407-4.778-23.793-.417C79.3,26.5,74.262,32.7,74.286,37.825c.016,2.95,1.7,5.291,4.994,6.966,5.732,2.894,9.051,9.1,7.415,13.828-.745,2.156-3.728,6.926-15.247,4.6-9.291-1.876-11.3,5.355-11.319,5.427l-1.836-.481c.665-2.525,4.385-8.65,13.532-6.806,7.078,1.427,11.84.2,13.075-3.367,1.315-3.8-1.651-9.067-6.477-11.512-4.962-2.509-6.02-6.092-6.036-8.65-.032-5.8,5.427-12.706,13.267-16.778C94.679,16.357,104.315,16.565,111.418,21.608ZM113.7,54.86l.04.04c.152.192.3.377.441.561l.24.345h0l5.227,7.519,8.634,12.425c1.267,1.667,3.96,9.219-4.04,15.3s-14.55,1.475-15.824-.192L99.072,79.622,92.9,72.191h0l-.273-.329c-.152-.2-.3-.409-.457-.617l-.008-.016c-.144-.216-.3-.441-.441-.665l-.008-.016c-.144-.232-.281-.473-.417-.721h0c-1.82-3.423-2.269-8.353,5.78-14.478,6.365-4.842,10.6-4.762,13.476-3.2l.048.024a7.568,7.568,0,0,1,.689.425l.064.04c.216.152.417.3.617.465l.072.064c.192.16.377.329.553.5l.072.064c.176.176.345.345.513.529l.048.056C113.4,54.491,113.55,54.675,113.7,54.86Zm-2.477,20.394-5.1-6.71a1.75,1.75,0,0,1-2.164-.361l-5.219-6.862a1.754,1.754,0,0,1,.224-2.18l-1.748-2.293c-4.6,3.672-6.157,6.894-6.253,9.612l9.876,12.979c.409-.056.818-.128,1.218-.208,10.117,11.608,13.171,8.57,12.546,8.217-.754-.425-3.391-2.485-7.583-7.151-.577-.641-1.138-1.3-1.683-1.956A22.848,22.848,0,0,0,111.225,75.254ZM100.243,59.133l-.329.257a1.423,1.423,0,0,0-.273,2l4.489,5.908a1.447,1.447,0,0,0,2.012.273l.329-.257a1.424,1.424,0,0,0,.272-2l-4.489-5.908A1.44,1.44,0,0,0,100.243,59.133Zm9.419-6.646c-2.661-.738-6.253-.168-11.151,3.375l1.748,2.293a1.751,1.751,0,0,1,2.164.369l5.219,6.854a1.754,1.754,0,0,1-.224,2.188l5.082,6.678a22.954,22.954,0,0,0,6.605-9.347ZM97.389,58.435s-1.539.417-3.2,2.83-1.852,5.227.7,8.778c2.493,3.487,4.706,6.317,6.67,8.61a24.736,24.736,0,0,0,3.4-.794,53.46,53.46,0,0,1-7.543-11.944C96.1,62.9,97.389,58.435,97.389,58.435Z" transform="translate(248.669 76.437)" fill="#035fe1"/>
  </g>
</svg>
