<svg xmlns="http://www.w3.org/2000/svg" width="702.867" height="762.522" viewBox="0 0 702.867 762.522">
  <path id="Path_94" data-name="Path 94" d="M466.623,583.589c-52.264-2.534-104.693-1.783-157.053-2.222-42.64-.358-85.295.239-127.911-.812-19.676-.485-34.294-26.245-23.654-42.544,9.716-14.881,21.913-28.14,33.474-41.685a217.893,217.893,0,0,0,127.707,41.149c120.937,0,218.979-98.042,218.979-218.979a218.185,218.185,0,0,0-56.874-147.221l29.735-33.085a17.041,17.041,0,0,0-1.283-24.073l-3.9-3.5A17.049,17.049,0,0,0,481.77,111.9l-29.461,32.777A217.98,217.98,0,0,0,319.187,99.518C198.246,99.518,100.2,197.556,100.2,318.5a218.152,218.152,0,0,0,60.1,150.6c-.05.073-.085.166-.135.231-9.127,12.8-19.444,24.751-29.434,36.925-18.967,23.107-21.913,49.194-9.574,75.259,12.42,26.234,35.638,40.491,64.626,40.953,58.125.924,116.273.158,174.41.119q46.126-.029,92.25.039c22.259.05,31.306,17.792,31.352,30.424.062,17.5-14.681,32.007-32.2,32.111-52.345.32-104.693.593-157.037.5-45.162-.081-90.321-.782-135.483-1.024-13.675-.073-23.773,9.354-22.949,22.379.8,12.7,9.139,18.139,21.524,17.985,22.525-.277,45.054-.678,67.58-.663,73.53.05,147.067-.081,220.592.574,31.271.277,54.436-9.662,70.988-38.577C539.017,647.564,511.3,585.758,466.623,583.589ZM136.3,318.5a182.888,182.888,0,1,1,182.89,182.886C218.179,501.383,136.3,419.5,136.3,318.5Z" transform="matrix(0.848, 0.53, -0.53, 0.848, 299.213, -137.496)" fill="#fff" opacity="0.114"/>
</svg>
