<svg xmlns="http://www.w3.org/2000/svg" width="119.181" height="119.181" viewBox="0 0 119.181 119.181">
  <g id="Group_384" data-name="Group 384" transform="translate(-1396.91 388.09)">
    <rect id="Rectangle_222" data-name="Rectangle 222" width="119.181" height="119.181" rx="26" transform="translate(1396.91 -388.09)" fill="#035fe1"/>
    <path id="Path_96" data-name="Path 96" d="M142.843,155.848c-6.082-.295-12.183-.208-18.276-.259-4.962-.042-9.925.028-14.885-.095-2.29-.056-3.991-3.054-2.752-4.951a48.778,48.778,0,0,1,3.9-4.851,25.479,25.479,0,0,0,33.724-37.825l3.46-3.85a1.983,1.983,0,0,0-.149-2.8l-.454-.408a1.984,1.984,0,0,0-2.8.149l-3.428,3.814A25.475,25.475,0,0,0,107.2,142.525c-.006.009-.01.019-.016.027-1.062,1.489-2.263,2.88-3.425,4.3a7.789,7.789,0,0,0-1.114,8.758,8.08,8.08,0,0,0,7.52,4.766c6.764.108,13.53.018,20.3.014q5.368,0,10.735,0a3.524,3.524,0,0,1,3.648,3.54,3.783,3.783,0,0,1-3.747,3.737c-6.091.037-12.183.069-18.274.058-5.255-.009-10.51-.091-15.766-.119a2.468,2.468,0,0,0-2.67,2.6c.094,1.478,1.063,2.111,2.5,2.093,2.621-.032,5.243-.079,7.864-.077,8.556.006,17.114-.009,25.67.067,3.639.032,6.335-1.124,8.261-4.489C151.267,163.292,148.042,156.1,142.843,155.848ZM104.4,125a21.282,21.282,0,1,1,21.282,21.282A21.282,21.282,0,0,1,104.4,125Z" transform="translate(1331.361 -464.787)" fill="#ffeb00"/>
  </g>
</svg>
