<svg xmlns="http://www.w3.org/2000/svg" width="394.233" height="250.871" viewBox="0 0 394.233 250.871">
  <g id="Group_384" data-name="Group 384" transform="translate(18.267 73.612)">
    <g id="Group_97" data-name="Group 97" transform="translate(398.818 182.066) rotate(180)" opacity="0.066">
      <path id="Path_3" data-name="Path 3" d="M86.472,56.728l7.616,12.209L81.871,76.552,74.263,64.335ZM60.628,42.467l12.209-7.616L65.229,22.642,53.012,30.258ZM79.113,55.646l-2.429-.561L71.53,58.3,64.852,47.581,75.57,40.9l2.349,3.776a3.648,3.648,0,0,1,.505.072l1.892.441-4.185-6.718L62.423,47.012,70.969,60.72Zm32.2-4.369a1.227,1.227,0,0,1,1.475-.914l.569.128a1.231,1.231,0,0,1,.914,1.475l-.329,1.419L127.412,56.5a4.848,4.848,0,0,1-2.188,9.443L111.756,62.82l-.329,1.419a1.216,1.216,0,0,1-1.467.914l-.577-.128a1.222,1.222,0,0,1-.914-1.467l.248-1.066-.938-.216L108,61.3,77.165,54.146l-.874-.2c-1.635-.385-2.028-2.4-4.457-4.136l.537-2.333c2.9-.5,4.145-2.124,5.828-1.74l.89.208L109.912,53.1l.224-.978.938.216Zm3.607,10.245-.232,1s5.684,1.315,10.133,2.349a4.923,4.923,0,0,0,3.311-.529c-1.4-.056-1.235-.04-5.275-.978Zm-4.914-2.461s-.962,4.161-1.042,4.5.152.713.866.842a1.062,1.062,0,0,0,.986-.192c-.609-.032-1.186-.353-1.154-.665S110.009,59.06,110.009,59.06ZM78.336,52.6c-3.487-.81-4.369-2.485-5.852-3.166,0,0,2.533,3.527,5.291,4.169,1.707.393,9.4,2.18,15.84,3.672s13.532,3.086,13.532,3.086l.224-.97S81.823,53.409,78.336,52.6Z" transform="translate(211.616 111.3)" fill="#fff"/>
      <path id="Path_4" data-name="Path 4" d="M52.553,78.4a2.85,2.85,0,1,0-3.736-1.515A2.847,2.847,0,0,0,52.553,78.4Zm-2.036-4.818A2.38,2.38,0,1,1,49.25,76.7,2.38,2.38,0,0,1,50.517,73.585ZM65.2,92.968,54.221,97.618l-2.044-4.826,10.983-4.65ZM47.912,67.428a9.029,9.029,0,0,0-4.617,4.385l-2.605-6.149,10.974-4.649,2.605,6.149A9.059,9.059,0,0,0,47.912,67.428Zm7.062,16.69a9,9,0,0,0,4.617-4.385L62.2,85.882l-10.974,4.65-2.605-6.149A8.972,8.972,0,0,0,54.974,84.118ZM50.709,58.754,39.727,63.4l-2.036-4.818,10.974-4.65Zm50.175-30.23L89.292,33.43l-.922,2.277,13.187-5.587a.8.8,0,0,1,1.05.425L119.53,70.506a.789.789,0,0,1-.425,1.042L68.073,93.169,50.525,51.732l27.9-11.816.922-2.269L36.665,55.724a2.53,2.53,0,0,0-1.347,3.319L52.241,99a2.535,2.535,0,0,0,3.319,1.339l64.227-27.2a2.533,2.533,0,0,0,1.339-3.319L104.2,29.863A2.533,2.533,0,0,0,100.884,28.524Zm-34.551,64.9L53.756,98.748l-2.718-6.413,12.578-5.323Zm-3-7.078L50.758,91.67l-3.832-9.059A8.189,8.189,0,0,0,59.5,77.288Zm-18-7.984a6.629,6.629,0,1,1,8.69,3.519A6.632,6.632,0,0,1,45.338,78.362ZM55.96,68.943a8.189,8.189,0,0,0-12.57,5.323l-3.84-9.059,12.578-5.323Zm-4.112-9.724L39.27,64.542l-2.718-6.413L49.13,52.8Zm17.7,8.578a1.543,1.543,0,0,0,.008,1.194,1.584,1.584,0,0,0,.882.85,1.558,1.558,0,0,0,2.036-.858l.2-.481,1.852-1.138a1,1,0,0,0,.321-.313L77,63.748l.088-.168L87.865,36.95l13-5.507a.757.757,0,0,1,1,.409l16.209,38.27a.76.76,0,0,1-.4,1L68.794,91.83l-16.8-39.689L77.917,41.166,70,60.71a.7.7,0,0,0-.056.184l-.762,3.864a.949.949,0,0,0,.016.449l.537,2.108Zm.641-2.846.625,2.437-.321.794a.54.54,0,0,0,.3.705l.032.016a.55.55,0,0,0,.713-.3l.321-.786L74,66.5l2.14-3.3,17.4-42.944-.465-.192.77-1.892a1.693,1.693,0,0,0-.93-2.2l-1.138-.465a1.691,1.691,0,0,0-2.2.93l-.762,1.9-.465-.192L70.943,61.1ZM77.6,44.677l5.187,2.1-.257.633-5.187-2.1Zm-.681,5.884a1.2,1.2,0,0,1,1.571-.665l.024.008a1.2,1.2,0,0,1,.673,1.571l-2.5,6.173-2.269-.914Zm-3.944,9.732,1.154-2.846,2.261.922L75.24,61.215a1.22,1.22,0,0,1-1.579.665l-.024-.008A1.22,1.22,0,0,1,72.971,60.293Z" transform="translate(86.057 60.35)" fill="#fff"/>
      <path id="Path_7" data-name="Path 7" d="M89.438,86.692l3.279-5.411.184-.16a3,3,0,0,0,.3-4.225L49.4,26.448l6,6.493,1.836,1.114-.321.529,1.523,1.651.649-1.066,12.987,7.872-2.91,4.8,1.523,1.643,3.231-5.331L86.9,52.029,81.405,61.1l1.523,1.651,5.812-9.6,12.995,7.872L93.654,74.354l1.964,2.132,8.217-13.556a2.724,2.724,0,0,0,.04-3.423,6.5,6.5,0,0,0-1.05-.77c-1.106-.657-53.429-32.29-53.429-32.29h0l6.269,3.8.008-.008-5.748-3.68,5.884,3.223.016-.04L70.35,34.176l-.93,3.046,1.932,1.058,1.058-3.471,14.526,4.433-1.98,6.485,1.932,1.058L89,39.868,103.522,44.3l-3.03,9.924,2.5,1.371.8-2.629,2.237-7.319a3,3,0,0,0-2-3.744L56.394,27.362l.321.024L47.64,24.428l11.768,3.1,8.241.457-.1,1.691,2.132.561.12-2.132,15.159.842-.289,5.243,2.124.553.321-5.676,15.159.842-.489,8.786,2.758.729h0l.489-8.81a2.994,2.994,0,0,0-2.83-3.15L46.59,24.372l-1.267-.385,1.828,1.106h0l-1.868-1.138a2.95,2.95,0,0,0-1.411-.409L39.7,22.264A3,3,0,0,0,36.145,23.8l-1.106-.064a3,3,0,0,0-3.158,2.822l-.609,11.055L23.879,44.02a3,3,0,0,0-.3,4.225l44.106,50.8a3,3,0,0,0,4.225.3l13.4-11.64h.008A2.991,2.991,0,0,0,89.438,86.692ZM41.163,24.965,37.1,31.683l2.14-7,1.772.537ZM32.1,36.886l3.022-9.916.04-.786.192.016.593-1.94L32.1,36.886Zm4.016,6.068a3.955,3.955,0,1,1,5.579.393A3.95,3.95,0,0,1,36.12,42.954Z" transform="translate(0 107.734)" fill="#fff"/>
      <path id="Path_12" data-name="Path 12" d="M101.7,62.746,89.231,68.317l-2.4,13.435a2.342,2.342,0,0,1-4.048,1.162L73.639,72.774,60.115,74.65a2.338,2.338,0,0,1-2.349-3.487l6.814-11.832L58.616,47.05a2.346,2.346,0,0,1,2.6-3.319l13.355,2.822,9.836-9.467a2.348,2.348,0,0,1,3.96,1.443l1.443,13.58,12.041,6.429A2.341,2.341,0,0,1,101.7,62.746Zm7.287-21.62L90.946,34.544l-.529,1.435,18.045,6.581ZM53.614,51.05,47.466,67.932l1.459.529,6.149-16.883Zm56.211-5.4-6.165,16.9,1.459.537,6.165-16.9ZM85,32.38l-18.1-6.6-.521,1.435,18.1,6.6ZM101.5,68.5,95.347,85.376l1.459.537,6.149-16.883ZM73.735,81.753,91.78,88.334,92.3,86.9,74.264,80.318ZM49.694,72.991l18.1,6.6.521-1.435-18.1-6.6Zm7.543-27.352L63.4,28.74,61.943,28.2,55.779,45.1Zm33.2-12.69-4.024-1.475L84.95,35.506l4.024,1.467Zm10.165,34.142,4.032,1.467,1.467-4.024-4.032-1.475Zm9.8-26.871-1.467,4.024,4.024,1.475,1.467-4.032Zm-44-16.041-4.032-1.467L60.9,26.744l4.032,1.467ZM92.293,89.913l4.024,1.467,1.467-4.024L93.76,85.889ZM68.3,81.168l4.032,1.475L73.8,78.61l-4.032-1.467ZM44.259,72.406l4.024,1.467,1.475-4.024-4.032-1.467ZM52.58,49.583,56.6,51.05l1.467-4.024-4.024-1.467Z" transform="translate(150.201 111.792)" fill="#fff"/>
      <path id="Path_14" data-name="Path 14" d="M104.448,47.4l8.481,5.916-.657.954L104.4,48.777a7.537,7.537,0,0,0-10.493,1.876l-3.784,5.419a7.13,7.13,0,0,0-.609,1.066,7.193,7.193,0,0,1,1.154-2.694l3.656-5.235A7.269,7.269,0,0,1,104.448,47.4Zm-.505,1.852,7.952,5.555L99.919,71.977l-7.952-5.555A7.271,7.271,0,0,1,90.155,56.3l3.656-5.243A7.284,7.284,0,0,1,103.943,49.25ZM91.253,61.163a5.518,5.518,0,0,0,2.285,4.088l6.742,4.706,1.178-1.675ZM65.513,25.642,61.063,15.381l-1.122.481L64.39,26.131Zm3.415,1.05L82.86,58.79a7.274,7.274,0,0,1-3.183,9.275,7.438,7.438,0,0,0,2-8.618L67.693,27.221l-.425.192L80.944,58.926A7.286,7.286,0,0,1,77.168,68.5l-5.86,2.541a7.286,7.286,0,0,1-9.572-3.776L48.061,35.743l1.659-.721h0ZM51.973,34.933l-1.884.818S59.917,58.4,63.2,65.948A5.527,5.527,0,0,0,66.755,69Zm7.856,9.042,1.05-3.279-.465-1.074L55.6,41.715l.561,1.3,2.99-1.3L58.218,45l.361.842.665-.289a5.206,5.206,0,0,1,.818-.281,2.272,2.272,0,0,1,.713-.072,1.118,1.118,0,0,1,.569.208,1.173,1.173,0,0,1,.409.529,1.188,1.188,0,0,1,.1.577,1.508,1.508,0,0,1-.176.577,1.875,1.875,0,0,1-.433.521,3.094,3.094,0,0,1-.673.417,5.024,5.024,0,0,1-.489.168c-.176.048-.345.08-.513.112s-.329.048-.465.056a1.72,1.72,0,0,1-.345.008l.144,1.459a6.332,6.332,0,0,0,1.154-.152,6.549,6.549,0,0,0,1.1-.369,4.767,4.767,0,0,0,1.146-.7,3.448,3.448,0,0,0,.818-.97,3.056,3.056,0,0,0,.361-1.178,2.731,2.731,0,0,0-.232-1.3,2.9,2.9,0,0,0-.609-.9,2.228,2.228,0,0,0-.794-.5,2.166,2.166,0,0,0-.874-.128,2.449,2.449,0,0,0-.866.208Zm6.213,7.608-1.6.7.3.665.85-.369.4.938a.733.733,0,0,1-.16.16,1.125,1.125,0,0,1-.3.176,1.24,1.24,0,0,1-1.082-.024,1.828,1.828,0,0,1-.481-.4,2.729,2.729,0,0,1-.393-.641,3.152,3.152,0,0,1-.224-.778,1.58,1.58,0,0,1,.048-.625,1.151,1.151,0,0,1,.281-.465,1.481,1.481,0,0,1,.465-.313,1.964,1.964,0,0,1,.3-.1l.12-.016.329.737.738-.321-.609-1.387a2.755,2.755,0,0,0-1.259.281,2.548,2.548,0,0,0-.721.473,2.143,2.143,0,0,0-.529.738,2.461,2.461,0,0,0-.2.97,3.1,3.1,0,0,0,.281,1.194,3.468,3.468,0,0,0,.633,1,2.638,2.638,0,0,0,.794.577,2.083,2.083,0,0,0,.882.168,2.443,2.443,0,0,0,.906-.208,3.035,3.035,0,0,0,.705-.433,1.691,1.691,0,0,0,.457-.577Zm2.381-3.511a1.958,1.958,0,0,0-.633.064,4.246,4.246,0,0,0-.657.224l-.393.176-.377.192-.337.184-.273.168,2,4.625a3.655,3.655,0,0,0,.417-.112c.144-.048.289-.1.425-.144s.273-.1.385-.16l.3-.128a2.969,2.969,0,0,0,.641-.369,2.378,2.378,0,0,0,.481-.505,1.405,1.405,0,0,0,.224-.609,1.371,1.371,0,0,0-.12-.7,1.546,1.546,0,0,0-.281-.441,1.166,1.166,0,0,0-.361-.249,1.012,1.012,0,0,0-.409-.088,1.6,1.6,0,0,0-.433.056l-.016-.04a1.222,1.222,0,0,0,.313-.337.976.976,0,0,0,.152-.369,1.185,1.185,0,0,0,.008-.377,1.408,1.408,0,0,0-.112-.369,1.047,1.047,0,0,0-.946-.7ZM65.833,37.747a2.82,2.82,0,0,0-1.01-.064,3.672,3.672,0,0,0-1.034.281,4.2,4.2,0,0,0-1.3.85,5.833,5.833,0,0,0-.842,1.074l1.082.818a3.2,3.2,0,0,1,.537-.754,2.488,2.488,0,0,1,.721-.465,1.982,1.982,0,0,1,.625-.152,1.464,1.464,0,0,1,.569.08,1.3,1.3,0,0,1,.778.681,2.76,2.76,0,0,1,.184.681,3.066,3.066,0,0,1-.016.762,6.6,6.6,0,0,1-.192.906c-.1.329-.216.705-.353,1.122q-.144.433-.313.866c-.112.281-.216.537-.321.778l-.289.657c-.088.192-.16.345-.216.465l.5,1.146L70.2,45.194l-.561-1.3-3.4,1.475c.1-.176.192-.385.3-.625s.208-.5.313-.762.192-.545.289-.834.176-.569.24-.842c.088-.361.16-.681.2-.97a5.154,5.154,0,0,0,.072-.826,3.632,3.632,0,0,0-.088-.729,4.1,4.1,0,0,0-.232-.738,2.2,2.2,0,0,0-.633-.858A2.118,2.118,0,0,0,65.833,37.747ZM50.722,32.063l-1.1.473L45.175,22.275,59.4,16.094l4.457,10.269L52.919,31.109l-.224-.513,1.683-.729-.257-.585-1.675.729-.9-2.06,2.71-1.17-1.227-2.838-2.71,1.178-1.6-3.68-2.2.954Zm9.964-5.636-2.3,1,.257.585,2.3-1Zm-5.443-3.447,1.226,2.838,4.064-1.764L59.3,21.217ZM67.789,49.026a1.591,1.591,0,0,0-.313.1l-.329.144-.224.12.545,1.243.3-.128.216-.1.2-.112a1.349,1.349,0,0,0,.345-.433.544.544,0,0,0,.008-.5.587.587,0,0,0-.192-.257.5.5,0,0,0-.256-.1A.75.75,0,0,0,67.789,49.026Zm.826,1.964a3.307,3.307,0,0,0-.361.136l-.489.208.561,1.283.112-.024.16-.064.176-.064.16-.064a1.527,1.527,0,0,0,.313-.184,1.056,1.056,0,0,0,.224-.24.822.822,0,0,0,.1-.3.7.7,0,0,0-.056-.329.639.639,0,0,0-.241-.3.632.632,0,0,0-.313-.1A1.382,1.382,0,0,0,68.615,50.99Zm-3.7-24.242L48.6,33.827l.441,1.026L65.36,27.766Zm1.05.754,1.852-.8-.449-1.018-1.844.8Z" transform="translate(156.628 60.354)" fill="#fff"/>
      <path id="Path_17" data-name="Path 17" d="M104.6,77.112c-3.583,5.475-8.594,7.487-13.4,5.387-4.569-2-7.559-7.135-6.541-11.223a7.825,7.825,0,0,0-1.106-6.614,9.214,9.214,0,0,0-6.285-3.736c-2.012-.192-4.241,1.611-5.764,3.231a4.164,4.164,0,0,0-1.194-1.483c1.7-1.772,4.353-3.9,7.143-3.639A11.109,11.109,0,0,1,85.1,63.572,9.679,9.679,0,0,1,86.5,71.733c-.794,3.191,1.756,7.407,5.459,9.026,3.944,1.724,7.976.016,11.055-4.69,4.369-6.686,4.185-15.576-.5-23.793C98.484,45.191,92.1,40.4,86.981,40.621c-2.95.128-5.227,1.9-6.766,5.259-2.677,5.828-8.754,9.387-13.54,7.936-2.188-.665-7.062-3.463-5.179-15.063,1.515-9.355-5.78-11.087-5.86-11.1l.417-1.852c2.541.561,8.81,4.048,7.311,13.259C62.21,46.185,63.621,50.9,67.228,52c3.848,1.17,9-2,11.255-6.91,2.325-5.058,5.86-6.253,8.417-6.365,5.8-.249,12.9,4.938,17.267,12.618C109.21,60.181,109.37,69.817,104.6,77.112Zm-33.14,3.543-.04.04c-.184.16-.361.313-.545.465l-.337.257h0l-7.311,5.507-12.081,9.1c-1.619,1.339-9.067,4.313-15.448-3.447s-2.036-14.486-.417-15.824l10.878-9.764,7.191-6.461h0l.313-.281c.192-.16.393-.321.6-.473l.016-.008c.208-.16.425-.321.649-.473l.008-.008c.232-.152.465-.3.713-.441h0c3.343-1.956,8.257-2.589,14.686,5.219,5.082,6.181,5.163,10.405,3.712,13.347l-.024.048c-.12.24-.257.473-.393.7l-.048.072c-.136.216-.289.433-.441.633l-.056.072c-.152.2-.313.393-.473.577l-.064.072q-.253.277-.505.529l-.056.056C71.814,80.335,71.637,80.5,71.461,80.655ZM50.987,78.964,57.5,73.609a1.753,1.753,0,0,1,.281-2.18l6.654-5.475a1.752,1.752,0,0,1,2.188.144l2.229-1.828c-3.84-4.465-7.127-5.9-9.852-5.884L46.41,68.743c.072.409.16.81.248,1.218C35.443,80.5,38.6,83.445,38.93,82.8c.4-.762,2.357-3.479,6.862-7.848.617-.6,1.251-1.186,1.884-1.756A22.947,22.947,0,0,0,50.987,78.964ZM66.675,67.372l-.265-.321a1.436,1.436,0,0,0-2.02-.192l-5.724,4.714a1.426,1.426,0,0,0-.192,2.012l.257.321a1.43,1.43,0,0,0,2.02.2l5.732-4.714A1.436,1.436,0,0,0,66.675,67.372Zm7.006,9.163c.633-2.693-.072-6.261-3.8-11.015l-2.229,1.828a1.762,1.762,0,0,1-.281,2.18L60.719,75a1.762,1.762,0,0,1-2.2-.136L52.045,80.2a23,23,0,0,0,9.6,6.245ZM67.268,64.494s-.473-1.523-2.95-3.094-5.291-1.643-8.754,1.034c-3.383,2.629-6.125,4.946-8.345,7a24.515,24.515,0,0,0,.922,3.359A53.751,53.751,0,0,1,59.8,64.8C62.755,63.372,67.268,64.494,67.268,64.494Z" transform="translate(66.476 133.451)" fill="#fff"/>
      <path id="Path_18" data-name="Path 18" d="M32.329,54.786l-2.653.914c-.593-3.431-2.2-18.526,14.157-24.177,15.52-5.355,22.967,6.165,24.963,10a4.327,4.327,0,0,0-2.036,3.118c.986-.609,1.788-1.114,2.333-1.459a2.721,2.721,0,0,1,1.01-.625l.04-.008.048-.008a2.782,2.782,0,0,1,3.615,2.9l.553.545a1.03,1.03,0,0,1,.128,1.283c-.016.024-.337.521-.858,1.339a4.285,4.285,0,0,0-2.2-7.68L69.669,18.849a2.8,2.8,0,1,0-2.132-.128,3.18,3.18,0,0,0,.625.208L69.87,40.4c-2.517-4.465-10.686-15.768-26.526-10.3C25.707,36.188,27.7,53.014,28.24,56.2l-2.677.922L27.9,63.893l6.766-2.341Zm-4.85,3.271L31.4,56.7l1.355,3.92-3.92,1.347ZM75.834,75.292a2.8,2.8,0,1,1-3.487-3.848L70.888,53.119c.473-.8.922-1.555,1.331-2.229l1.635,20.442a3.121,3.121,0,0,1,.689.216A2.8,2.8,0,0,1,75.834,75.292Zm-2.2-28.578S63.929,61.48,63.256,67.757c-2.942,2.14-4.994,3.655-4.994,3.655s-4.393-.665-7.567,1.972c-.281.24-.537.465-.794.689l.273.273-.882.874.721.713-6.261,7.952-5.235-5.235-5.243-5.243,7.952-6.261.705.713.882-.874.273.273c.224-.257.449-.513.689-.794,2.637-3.174,1.972-7.567,1.972-7.567S47.263,56.846,49.4,53.9c6.277-.673,21.043-10.381,21.043-10.381l1.283,1.283L59.039,57.7c-2.99-2.237-7.311,2.108-4.858,5.283,3.174,2.453,7.519-1.868,5.283-4.858l12.89-12.69Z" transform="translate(19.023 46.433)" fill="#fff"/>
      <path id="Path_27" data-name="Path 27" d="M75.845,27.9l6.221,6.405L76.96,36.736h-.08l-.633-6.83Zm-.6,8.826-.8-8.626L73.5,23.445l.1-.04,2.83,3.639L82.515,33.3l.056-.128c.521-1.018,1.748-1.571,3.463-1.571l5.034.032L73.537,15.084l-3.5,1.659L71.284,36.7Zm7.72-.8a4.163,4.163,0,0,1-.4-.721l-3.255,1.539,4.273.024Zm14.79-4.241.12.008a8.2,8.2,0,0,1,1.507-3.014,13.506,13.506,0,0,1,1.451-1.547,12.434,12.434,0,0,1-1.218-.866l-.064.032a1.041,1.041,0,0,1-.433.1,1.03,1.03,0,0,1-.529-.144,14.273,14.273,0,0,1-1.467-1.034c-.481-.393-.978-.834-1.475-1.315-.481-.473-.954-.986-1.395-1.515a15.918,15.918,0,0,1-1.162-1.611,1.025,1.025,0,0,1-.024-1.058c.152-.249.329-.5.5-.754H89.69a4.184,4.184,0,0,0-4.177,4.177v1.844l7.054,6.654Zm23.3-6.285q.481,1.022.866,1.756c.128.265.281.537.433.81l.12-.032V23.148a4.179,4.179,0,0,0-4.177-4.177h-.064c.257.593.505,1.17.729,1.716C119.6,22.226,120.3,23.813,121.058,25.4ZM119.7,37.69a8.273,8.273,0,0,1-1-1.058l-.369.176a1,1,0,0,1-.433.1.981.981,0,0,1-.665-.249,10.286,10.286,0,0,1-.786-.778,7.3,7.3,0,0,1-.617,1.884,8.229,8.229,0,0,1-1.531,2.092,8.727,8.727,0,0,1-2.453,1.683,9.9,9.9,0,0,1-1.836.657L121.29,58.051a3.206,3.206,0,0,1,.577,1.259,4.283,4.283,0,0,0,.609-2.18V36.159c-.417.289-.818.545-1.17.77Zm-50.1-11.7a4.5,4.5,0,0,0-2.221,3.872V36.68l2.894.016Zm39.465-4.313a22.533,22.533,0,0,0-1.235-2.7h-4.778c-.176.16-.353.321-.513.5l.417,5.948c.168-.12.321-.249.5-.369C104.969,24.014,106.853,22.875,109.057,21.673Zm17.115,8.089a11.536,11.536,0,0,1-1.267,1.291q-.842.746-1.78,1.515c-.625.505-1.267.978-1.908,1.419s-1.21.818-1.716,1.138l-1.611.762a7.782,7.782,0,0,1-1.6-1.908c-.4-.689-.874-1.555-1.395-2.581l-.24.112a6.53,6.53,0,0,1,.064,2.2,7.091,7.091,0,0,1-.705,2.245,7.861,7.861,0,0,1-1.531,2.092,8.569,8.569,0,0,1-2.445,1.683,11.177,11.177,0,0,1-1.4.537l-3.856-5.411a9.142,9.142,0,0,0-5.868-3.078,7.055,7.055,0,0,1,1.283-2.477,16.638,16.638,0,0,1,3.832-3.415,68.934,68.934,0,0,1,6.309-3.744,16.078,16.078,0,0,0-3.158-5.8,3.258,3.258,0,0,0-3.976-.433,8.176,8.176,0,0,0-2.469,1.756l.465,6.726-2.076.994h-.008a14.219,14.219,0,0,1-1.347-.954c-.465-.377-.938-.794-1.4-1.251a17.11,17.11,0,0,1-1.315-1.435,14.071,14.071,0,0,1-1.1-1.507,15.937,15.937,0,0,1,3.72-4.136,27.4,27.4,0,0,1,5.668-3.559,15.06,15.06,0,0,1,4.682-1.5,7.375,7.375,0,0,1,3.439.337,6.215,6.215,0,0,1,2.477,1.748,12.044,12.044,0,0,1,1.772,2.758c.9,1.892,1.675,3.623,2.317,5.187s1.355,3.158,2.116,4.77c.329.689.625,1.291.882,1.788s.545,1.01.874,1.547l3.5-1.074Zm-12.433.617a10.764,10.764,0,0,0-.112-1.283l-2.245-4.73a29.692,29.692,0,0,0-3.5,2.012,6.318,6.318,0,0,0-1.86,1.836,3.159,3.159,0,0,0-.457,1.9,6.331,6.331,0,0,0,.649,2.156,4.59,4.59,0,0,0,2.172,2.389,3.259,3.259,0,0,0,2.838-.128,3.947,3.947,0,0,0,1.523-1.186,5.036,5.036,0,0,0,.778-1.475A4.032,4.032,0,0,0,113.739,30.379Zm-2.212-3.327a20.679,20.679,0,0,0-1.844,1.138,6.092,6.092,0,0,0-1.852,1.836,3.111,3.111,0,0,0-.465,1.9c.016.152.04.313.072.473A3.216,3.216,0,0,0,108.8,33.73a1.951,1.951,0,0,0,.818.176,2.715,2.715,0,0,0,1.17-.3,2.9,2.9,0,0,0,1.138-.874,4.343,4.343,0,0,0,.633-1.178,3.342,3.342,0,0,0,.16-1.138c-.016-.385-.04-.729-.08-1.018Zm-4.3,13.011-1.523-2.14-1.756-2.469c-1.074-1.5-3.848-2.734-6.2-2.75l-11.664-.08c-2.357-.016-3.383,1.194-2.293,2.7l1.8,2.477-31.344-.176c-2.549-.016-3.615,1.307-2.389,2.966L65.24,58.6a8.948,8.948,0,0,0,6.477,2.87H118.14c2.4,0,3.439-1.267,2.325-2.83Z" transform="translate(199.909 29.492)" fill="#fff"/>
      <path id="Path_29" data-name="Path 29" d="M83.286,34.928A25.709,25.709,0,1,0,57.578,60.636,25.705,25.705,0,0,0,83.286,34.928ZM57.578,55A20.073,20.073,0,1,1,77.442,32.17h2.237v5.379H77.466A20.07,20.07,0,0,1,57.578,55ZM72.488,37.549h4.12a19.24,19.24,0,1,1-.024-5.379h-4.12a15.152,15.152,0,1,0,.024,5.379ZM57.578,20.7a14.233,14.233,0,1,0,14.1,16.1h6.982V33.052H71.678A14.221,14.221,0,0,0,57.578,20.7Zm0,26.318a12.089,12.089,0,1,1,12.1-12.089A12.092,12.092,0,0,1,57.578,47.016ZM65.7,27.528A20.42,20.42,0,0,0,50.651,43.473,11.01,11.01,0,1,1,65.7,27.528Zm35.416,10.309c-1.788-1.74-5.475-.248-7.984,1.8-4.874,3.968-3.383,6.886-2.894,8.145A130.521,130.521,0,0,1,78.22,59.289c-5.756,5.01-12.642,6.421-13.027,13.067-.04.681-1.05,1.659-.249,2.557l.008.016.032.032.032.032.016.008c.922.778,1.876-.257,2.557-.313,6.63-.569,7.848-7.5,12.706-13.379A129.168,129.168,0,0,1,91.471,48.98c1.275.457,3.295,2.573,8.064-3.118C101.612,43.385,102.862,39.537,101.115,37.838ZM90.084,48.78c-.609.649-8.666,9.042-11.792,12.017s-7.143,5.836-9.772,8.69a25.83,25.83,0,0,0-3.407,4.922c-.2-.024-.2-.473-.008-.954a15.515,15.515,0,0,0,.593-2.6c.248-1.371,1.539-3.046,3.359-4.585s7.078-4.73,11.327-8.425,9.988-9.764,9.988-9.764C90.4,48.219,90.693,48.131,90.084,48.78Zm6.694-.649a3.776,3.776,0,0,1-4.8.521c2.95.232,6.71-2.565,9.435-9.107a4.828,4.828,0,0,1-.561,3A17.185,17.185,0,0,1,96.778,48.131Z" transform="translate(63.268 17.119)" fill="#fff"/>
      <path id="Path_32" data-name="Path 32" d="M119.537,44.912a3.362,3.362,0,0,1-.056,1.058,6.32,6.32,0,0,1-1.515,2.742,5.1,5.1,0,0,1-.617,1.331c-2.036,2.926-4.866,1.3-6.686-.85-1.419-1.675-3.984-3.832-3.287-6.117l-3.535-.152-.128-.008h-.12l-6.1-.257a2.543,2.543,0,0,1-1.3-.513,1.708,1.708,0,0,1-.353-.016L66.253,37.3a3.616,3.616,0,0,1-1.732,3.487c-1.86,1.026-5.171,1.5-7.07.417a1.55,1.55,0,0,1-.529-1.828c.409-1.034-.12-2.413-.08-3.615l-6.092-.994A32.235,32.235,0,0,0,53.53,47.686C61.09,65.522,70.365,66.14,75.519,58.725s20,12.506,31.336,10.109c9.836-2.076,15.52-11.96,16.506-22.759A27.841,27.841,0,0,1,119.537,44.912Zm-40.09,4.473c-5.523-2.782-8.233,4.674-12.466,1.1-1.515-1.283-.457-6.541,7.776-7.7S90.077,47.71,89.1,50.5C88.049,53.506,84.971,52.167,79.448,49.385Zm31.536,6.67a1.407,1.407,0,0,1,.184.818,5.99,5.99,0,0,1-1.435,4.441,7.655,7.655,0,0,1-6.253,2.269c-2.629-.361-3.583-3.295-3.014-5.652.97-4.008,5.644-5.884,8.746-3.832a4.153,4.153,0,0,1,.962.681,3.353,3.353,0,0,1,.794,1.251Zm-43.4-28.178c-2.044-1.3-4.241-2.91-4.529-5.475-.529-4.6,6.253-4.6,8.874-2.269A5.2,5.2,0,0,1,74.2,21.841c1.507,1.9,1.9,3.944.152,5.844a5.284,5.284,0,0,1-.705.649l23.664,1.78a1,1,0,0,1,.3.072,2.391,2.391,0,0,1,1.3-.208l2.974.585a2.67,2.67,0,0,1,.064-.609c.168-2.148,2.421-3.359,4.7-3.455a7.625,7.625,0,0,1,3.223.224c1.427.249,2.79.8,3.239,2.116a1.544,1.544,0,0,1-.5,1.748,8.454,8.454,0,0,1-.513,1.98l3.134.617a1.317,1.317,0,0,1,.313.112,1.507,1.507,0,0,1,.329.016l2.124.417a1.2,1.2,0,0,1,.441-.433,13.533,13.533,0,0,1,3-1.13c-3.848-9.3-12.8-17.708-24.546-22.414C85.708,5.271,74.566,5.768,64.834,11.837,59.6,15.1,54.549,20.061,52.168,26.723Zm30.35-12.169c1.411.337,3.479,1.1,3.575,2.846a1.542,1.542,0,0,1-.128.729,3.747,3.747,0,0,1,.417,1.635c.088,2.172-1.218,5.387-3.776,5.539-2.677.168-4.85-2.469-6.116-4.569-1.09-1.812-1.772-4.241.337-5.636C93.869,15.18,96.114,15.276,97.933,15.709ZM79.439,13.376a5.315,5.315,0,0,1,3.591.136,5.223,5.223,0,0,1,1.138.818A5.849,5.849,0,0,1,87.055,15.6a3.027,3.027,0,0,1,.561,3.142c-.633,2.132-2.269,4.81-4.738,4.962-2.124.136-3.511-1.924-4.465-3.688a3.675,3.675,0,0,1-1.162-3.415A2.938,2.938,0,0,1,79.439,13.376Zm39.128,25.292c-.056.529-.088,1.042-.128,1.563.144-.393,1.243-.3,1.243-.3s2.886,1.924,9.475,3.215a21.026,21.026,0,0,0,11.375-.738c-4.994,3.968-20.586-.361-21.756-1.507a1.1,1.1,0,0,1-.345-.521c-.064.938-.1,1.868-.072,2.8,3.623,1.8,9.828,3.351,17.724,2.108,10.79-1.691,14.606-7.431,10.245-6.221s-7.375-3.728-16.313-5.724c-5.467-1.227-9.067-.112-11.055.938l.425.088A32.808,32.808,0,0,0,118.567,38.668Zm1.531-.281a32.994,32.994,0,0,1,9.892-.249c5.636.665,7.864,2.365,7.864,2.365C132.043,38.219,120.1,38.387,120.1,38.387Zm5.66-4.161c4.818-.649,9.932,2.124,13.74,4.529s6.758,1.034,6.758,1.034c-2.485,1.707-6.125.249-11.912-2.669s-13.283-1.307-13.283-1.307S120.94,34.868,125.758,34.226Zm-21.8-1.579-1.459-.289a2.078,2.078,0,0,1,.473-.449l1.4.273A2.608,2.608,0,0,0,103.954,32.647Zm-1.627-.866a1.86,1.86,0,0,0-.5.449l-3.15-.617a3.908,3.908,0,0,0-1.291,1.852c.665.128,1.948.329,3.551.569a14.371,14.371,0,0,0-.505,2.389l-.04.321c-.176,1.523-.224,4.016.754,4.954l.649.024c-.922-.97-.874-3.4-.7-4.9l.04-.321a13.988,13.988,0,0,1,.489-2.365l1.523.224a14.245,14.245,0,0,0-.473,2.325l-.04.321c-.168,1.435-.224,3.736.593,4.778l.409.016-6.1-.257c-1.756-.208-1.724-3.479-1.507-5.323l.04-.321c.216-1.844.962-5.026,2.71-4.818ZM95.4,36.343c.449-3.768,1.788-5.114,1.788-5.114h.032L43.47,27.18c-1.756-.208-3.247.313-3.455,2.06l-.04.3c-.208,1.756,1.13,2.605,2.878,2.814l53.165,8.682S94.951,40.11,95.4,36.343Zm-53.493-8,.882-.866,53.742,4.6-.713,1.291Zm72.821,13.932a9.657,9.657,0,0,1-.208-3.856l.04-.3a12.924,12.924,0,0,1,.425-2.092c1.563.216,2.565.353,2.565.353l.128-1.058-2.253-.433a3.71,3.71,0,0,1,.232-.473l2.317.449a29.11,29.11,0,0,0-.7,3.672,28.241,28.241,0,0,0-.184,3.848Zm.048-7.519-10.157-1.98a2.264,2.264,0,0,1,.4-.465l10,1.972A5.2,5.2,0,0,0,114.776,34.756Zm-10.894,7.062c-.762-1.074-.713-3.311-.545-4.73l.04-.313a13.92,13.92,0,0,1,.473-2.309c3.543.505,7.672,1.082,10.469,1.467a14.025,14.025,0,0,0-.433,2.1l-.032.3a9.5,9.5,0,0,0,.216,3.912Z" transform="translate(119.991 0)" fill="#fff"/>
      <path id="Path_33" data-name="Path 33" d="M111.418,21.608c5.339,3.792,7.159,8.874,4.874,13.6-2.164,4.481-7.415,7.279-11.463,6.1a7.821,7.821,0,0,0-6.646.858A9.241,9.241,0,0,0,94.206,48.3c-.273,2.012,1.451,4.3,3.014,5.884a4.189,4.189,0,0,0-1.531,1.146c-1.707-1.772-3.736-4.505-3.367-7.279a11.115,11.115,0,0,1,4.826-7.479,9.65,9.65,0,0,1,8.209-1.082c3.158.914,7.471-1.467,9.227-5.114,1.876-3.872.321-7.96-4.265-11.223-6.509-4.617-15.407-4.778-23.793-.417C79.3,26.5,74.262,32.7,74.286,37.825c.016,2.95,1.7,5.291,4.994,6.966,5.732,2.894,9.051,9.1,7.415,13.828-.745,2.156-3.728,6.926-15.247,4.6-9.291-1.876-11.3,5.355-11.319,5.427l-1.836-.481c.665-2.525,4.385-8.65,13.532-6.806,7.078,1.427,11.84.2,13.075-3.367,1.315-3.8-1.651-9.067-6.477-11.512-4.962-2.509-6.02-6.092-6.036-8.65-.032-5.8,5.427-12.706,13.267-16.778C94.679,16.357,104.315,16.565,111.418,21.608ZM113.7,54.86l.04.04c.152.192.3.377.441.561l.24.345h0l5.227,7.519,8.634,12.425c1.267,1.667,3.96,9.219-4.04,15.3s-14.55,1.475-15.824-.192L99.072,79.622,92.9,72.191h0l-.273-.329c-.152-.2-.3-.409-.457-.617l-.008-.016c-.144-.216-.3-.441-.441-.665l-.008-.016c-.144-.232-.281-.473-.417-.721h0c-1.82-3.423-2.269-8.353,5.78-14.478,6.365-4.842,10.6-4.762,13.476-3.2l.048.024a7.568,7.568,0,0,1,.689.425l.064.04c.216.152.417.3.617.465l.072.064c.192.16.377.329.553.5l.072.064c.176.176.345.345.513.529l.048.056C113.4,54.491,113.55,54.675,113.7,54.86Zm-2.477,20.394-5.1-6.71a1.75,1.75,0,0,1-2.164-.361l-5.219-6.862a1.754,1.754,0,0,1,.224-2.18l-1.748-2.293c-4.6,3.672-6.157,6.894-6.253,9.612l9.876,12.979c.409-.056.818-.128,1.218-.208,10.117,11.608,13.171,8.57,12.546,8.217-.754-.425-3.391-2.485-7.583-7.151-.577-.641-1.138-1.3-1.683-1.956A22.848,22.848,0,0,0,111.225,75.254ZM100.243,59.133l-.329.257a1.423,1.423,0,0,0-.273,2l4.489,5.908a1.447,1.447,0,0,0,2.012.273l.329-.257a1.424,1.424,0,0,0,.272-2l-4.489-5.908A1.44,1.44,0,0,0,100.243,59.133Zm9.419-6.646c-2.661-.738-6.253-.168-11.151,3.375l1.748,2.293a1.751,1.751,0,0,1,2.164.369l5.219,6.854a1.754,1.754,0,0,1-.224,2.188l5.082,6.678a22.954,22.954,0,0,0,6.605-9.347ZM97.389,58.435s-1.539.417-3.2,2.83-1.852,5.227.7,8.778c2.493,3.487,4.706,6.317,6.67,8.61a24.736,24.736,0,0,0,3.4-.794,53.46,53.46,0,0,1-7.543-11.944C96.1,62.9,97.389,58.435,97.389,58.435Z" transform="translate(248.669 76.437)" fill="#fff"/>
    </g>
    <path id="Path_62" data-name="Path 62" d="M130.265,277.047c-7.261-.179-12.657-9.686-8.73-15.7,3.586-5.492,8.087-10.385,12.354-15.384A80.807,80.807,0,0,0,240.847,126l10.974-12.21a6.289,6.289,0,0,0-.473-8.884l-1.438-1.293a6.292,6.292,0,0,0-8.886.473l-10.873,12.1a80.447,80.447,0,0,0-49.129-16.665C147.572,126.931,100.2,135.7,100.2,180.333a80.51,80.51,0,0,0,22.18,55.581c-.018.027-.031.061-.05.085-3.368,4.723-7.176,9.135-10.863,13.627-7,8.528-8.087,18.155-3.533,27.775,3.626,7.658,12.066,15.03,20.044,16.89,1.749.41,1.57-1.811,3.806-1.776C153.24,292.856,145.993,277.435,130.265,277.047Zm-16.741-96.714c0-37.277,34.961-43.807,67.5-67.5a67.5,67.5,0,1,1-67.5,67.5Z" transform="matrix(0.848, 0.53, -0.53, 0.848, 52.732, -211.108)" fill="#fff" opacity="0.21"/>
  </g>
</svg>
