<svg xmlns="http://www.w3.org/2000/svg" width="34" height="35" viewBox="0 0 34 35">
  <g id="Group_530" data-name="Group 530" transform="translate(-82 -419)">
    <rect id="Rectangle_235" data-name="Rectangle 235" width="34" height="35" transform="translate(82 419)" fill="none"/>
    <path id="path" d="M524.87,984.082a9.821,9.821,0,0,1,4.692,0,8.644,8.644,0,0,1,2.346,1,1.9,1.9,0,0,1,1.066,1.564v2.133H521.6v-2.133a1.991,1.991,0,0,1,1.066-1.564A6.2,6.2,0,0,1,524.87,984.082Zm5.189,1.635a8.179,8.179,0,0,0-2.915-.569,8.491,8.491,0,0,0-2.915.569c-1,.355-1.422.711-1.422.924v.782h8.673v-.782C531.481,986.428,531.055,986.073,530.059,985.717Zm-4.905-7.464a2.749,2.749,0,1,1-.853,1.99A2.69,2.69,0,0,1,525.154,978.253Zm3.057.924a1.546,1.546,0,1,0,.426,1.066A1.447,1.447,0,0,0,528.211,979.177Z" transform="translate(-428.402 -547.737)" fill="#fff"/>
  </g>
</svg>
