<svg xmlns="http://www.w3.org/2000/svg" width="34" height="35" viewBox="0 0 34 35">
  <g id="Group_531" data-name="Group 531" transform="translate(-82 -491)">
    <rect id="Rectangle_234" data-name="Rectangle 234" width="34" height="35" transform="translate(82 491)" fill="none"/>
    <path id="path" d="M421.276,985.459a10.451,10.451,0,0,1,3.794.794c1.324.529,1.941,1.235,1.941,2.118v2.382H407.6v-2.382c0-.882.706-1.588,1.941-2.118a9.759,9.759,0,0,1,3.794-.794,9.253,9.253,0,0,1,3.971.882A9.253,9.253,0,0,1,421.276,985.459Zm-3.529,3.971V988.37c0-.265-.529-.618-1.5-.971a8.673,8.673,0,0,0-3-.618,7.315,7.315,0,0,0-3,.618c-1.059.441-1.5.706-1.5.971v1.059Zm-2.294-5.735a3.2,3.2,0,1,1,.882-2.206A2.927,2.927,0,0,1,415.453,983.694Zm-.882-3.441a1.706,1.706,0,1,0,.529,1.235A1.742,1.742,0,0,0,414.571,980.253Zm8.823,3.441a3.2,3.2,0,1,1,.882-2.206A2.926,2.926,0,0,1,423.394,983.694Zm2.294,5.735V988.37c0-.265-.529-.618-1.5-.971a7.244,7.244,0,0,0-5.647-.088,1.833,1.833,0,0,1,.441,1.059v1.059Zm-3.176-9.176a1.706,1.706,0,1,0,.529,1.235A1.742,1.742,0,0,0,422.512,980.253Z" transform="translate(-318.307 -476.976)" fill="#ffd800"/>
  </g>
</svg>
